<?xml version="1.0" standalone="no"?>
<!DOCTYPE svg PUBLIC "-//W3C//DTD SVG 20010904//EN"
 "http://www.w3.org/TR/2001/REC-SVG-20010904/DTD/svg10.dtd">
<svg version="1.0" xmlns="http://www.w3.org/2000/svg"
 width="490.000000pt" height="490.000000pt" viewBox="0 0 490.000000 490.000000"
 preserveAspectRatio="xMidYMid meet">
<metadata>
Created by potrace 1.14, written by Peter Selinger 2001-2017
</metadata>
<g transform="translate(0.000000,490.000000) scale(0.100000,-0.100000)"
fill="#000000" stroke="none">
<path d="M2205 4880 c-27 -4 -74 -10 -104 -14 -278 -34 -619 -153 -886 -309
-68 -40 -218 -140 -242 -162 -6 -5 -26 -21 -44 -35 -110 -83 -289 -260 -380
-375 -63 -79 -189 -259 -189 -270 0 -4 -8 -19 -19 -33 -33 -48 -107 -196 -150
-300 -72 -177 -136 -404 -157 -557 -3 -27 -8 -59 -10 -70 -10 -48 -18 -201
-18 -325 1 -253 34 -466 113 -725 58 -189 181 -442 302 -623 40 -59 75 -109
78 -112 4 -3 22 -25 41 -50 131 -170 379 -399 549 -505 9 -6 41 -26 71 -45
237 -150 520 -262 805 -319 196 -39 308 -49 525 -46 190 3 208 5 370 31 660
109 1265 506 1636 1074 143 218 277 528 329 760 18 78 35 163 40 200 3 25 8
56 10 70 22 140 22 493 0 608 -2 11 -6 43 -10 72 -4 29 -8 60 -10 69 -2 9 -11
50 -19 91 -46 216 -157 496 -282 710 -124 214 -335 463 -527 624 -360 301
-775 486 -1246 555 -131 19 -478 26 -576 11z"/>
</g>
</svg>
