<?xml version="1.0" standalone="no"?>
<!DOCTYPE svg PUBLIC "-//W3C//DTD SVG 20010904//EN"
 "http://www.w3.org/TR/2001/REC-SVG-20010904/DTD/svg10.dtd">
<svg version="1.0" xmlns="http://www.w3.org/2000/svg"
 width="416.000000pt" height="416.000000pt" viewBox="0 0 416.000000 416.000000"
 preserveAspectRatio="xMidYMid meet">
<metadata>
Created by potrace 1.14, written by Peter Selinger 2001-2017
</metadata>
<g transform="translate(0.000000,416.000000) scale(0.100000,-0.100000)"
fill="#000000" stroke="none">
<path d="M341 4108 c-12 -29 -38 -87 -56 -128 -43 -94 -85 -209 -85 -232 0
-10 5 -18 10 -18 6 0 10 10 10 23 0 20 29 94 124 317 40 94 39 90 28 90 -5 0
-19 -24 -31 -52z"/>
<path d="M402 4133 c-20 -52 -35 -113 -29 -119 10 -10 27 6 27 26 0 11 9 42
20 70 15 39 17 50 6 50 -7 0 -18 -12 -24 -27z"/>
<path d="M455 4149 c-4 -6 -5 -12 -2 -15 2 -3 7 2 10 11 7 17 1 20 -8 4z"/>
<path d="M2413 4138 c22 -96 33 -128 43 -124 14 5 24 -25 24 -70 0 -31 8 -47
19 -39 6 3 -2 112 -13 205 -2 14 -4 31 -5 38 0 6 -10 12 -22 12 -15 0 -19 -4
-15 -16 4 -9 11 -36 17 -61 18 -71 3 -60 -16 12 -10 36 -22 65 -28 65 -5 0 -7
-10 -4 -22z"/>
<path d="M2490 4144 c0 -8 4 -13 9 -10 5 4 7 -4 3 -16 -4 -15 -2 -19 7 -13 10
6 11 3 1 -15 -7 -12 -8 -25 -4 -29 29 -21 46 -51 36 -64 -6 -7 -9 -22 -8 -32
2 -11 -3 -35 -10 -54 -12 -29 -12 -32 2 -27 15 6 14 -4 -3 -51 -3 -8 3 -13 16
-13 13 0 21 -6 21 -17 0 -15 4 -13 20 7 11 14 20 20 20 14 0 -19 -41 -65 -52
-58 -6 4 -8 2 -5 -3 4 -6 -4 -26 -16 -44 -23 -34 -23 -34 -102 -34 -70 0 -80
2 -79 17 1 14 -6 17 -36 16 -24 -1 -44 5 -55 15 -9 10 -28 17 -43 17 -47 0
-71 11 -65 27 5 13 1 15 -20 9 -16 -4 -27 -2 -27 4 0 5 -6 10 -13 10 -7 0 -24
10 -37 23 -14 12 -41 31 -60 41 -19 10 -45 28 -57 39 -19 17 -25 18 -38 7 -14
-11 -17 -10 -22 8 -4 16 -13 22 -34 22 -29 0 -46 14 -29 25 20 13 -2 25 -46
25 -50 0 -59 17 -14 27 17 3 30 9 30 14 0 12 -20 11 -58 -2 -25 -9 -39 -7 -76
10 -25 11 -46 25 -46 32 0 15 -189 6 -199 -9 -5 -8 -241 -70 -331 -87 -64 -12
-191 -58 -179 -66 7 -4 18 -5 26 -2 7 3 13 1 13 -5 0 -13 -124 -45 -172 -44
-25 0 -38 -5 -38 -13 0 -7 -5 -15 -11 -17 -7 -2 4 -27 26 -62 35 -54 35 -58
13 -51 -16 5 -20 4 -13 -3 6 -6 24 -12 40 -14 27 -4 28 -5 10 -13 -23 -11 -35
-19 -78 -61 -18 -17 -50 -44 -72 -60 -50 -36 -63 -49 -97 -92 -30 -37 -28 -64
2 -37 10 9 21 12 24 7 3 -6 -2 -13 -12 -17 -16 -6 -15 -8 3 -21 20 -15 19 -16
-10 -39 -21 -17 -26 -28 -19 -35 16 -16 46 0 41 21 -4 13 0 19 12 19 20 0 41
19 41 37 0 7 -9 13 -20 13 -26 0 -26 17 0 25 11 3 20 11 20 16 0 5 6 9 14 9 8
0 13 8 12 18 0 11 6 17 18 17 11 0 21 6 24 13 2 6 8 10 13 6 5 -3 9 -1 9 4 0
6 -6 12 -13 15 -16 6 -44 -8 -31 -15 5 -3 4 -4 -2 -2 -6 1 -30 -15 -52 -37
-23 -21 -42 -33 -42 -26 0 15 38 52 87 85 33 23 48 28 39 13 -4 -5 0 -11 6
-14 14 -5 93 31 85 39 -2 3 -21 -4 -41 -15 -26 -15 -36 -17 -36 -7 0 14 98 66
125 66 11 0 15 -6 11 -17 -13 -41 -14 -123 -4 -186 8 -47 8 -78 1 -101 -10
-32 -8 -35 41 -84 29 -29 57 -52 64 -52 7 0 12 -5 12 -11 0 -5 4 -8 9 -5 5 3
9 16 9 28 0 13 7 43 15 67 9 24 13 50 10 59 -4 10 -2 13 5 8 7 -4 12 -13 12
-21 0 -8 6 -18 14 -22 17 -10 32 -103 17 -103 -20 0 -26 5 -23 22 2 9 -2 19
-8 23 -5 3 -10 3 -11 -2 0 -4 -3 -20 -5 -35 -3 -20 1 -31 16 -40 11 -7 20 -18
20 -25 0 -6 7 -19 15 -27 9 -9 29 -51 44 -95 16 -43 35 -89 42 -102 24 -44 37
-126 33 -205 -3 -43 -6 -115 -8 -159 -2 -44 -10 -96 -19 -115 -8 -19 -18 -57
-22 -85 -3 -27 -17 -66 -30 -85 -12 -19 -26 -55 -29 -79 -4 -24 -15 -56 -26
-71 -23 -33 -46 -93 -55 -143 -3 -21 -16 -48 -28 -60 -12 -11 -29 -35 -37 -51
-17 -34 -36 -37 -34 -6 1 11 -3 20 -7 20 -5 0 -9 -4 -9 -10 0 -13 -37 -13 -45
0 -10 16 -48 -9 -41 -26 3 -9 1 -12 -4 -9 -6 3 -10 1 -10 -4 0 -6 5 -11 10
-11 6 0 9 -23 8 -52 -1 -46 -2 -48 -5 -13 -2 22 -9 50 -15 62 -6 12 -8 33 -6
47 3 17 1 26 -7 26 -16 0 -25 -22 -26 -63 -1 -31 -1 -31 -9 -7 -4 14 -9 48
-10 75 -1 28 -5 59 -9 70 -7 16 -10 12 -15 -22 -4 -24 -12 -45 -16 -48 -5 -3
-4 9 1 27 11 39 10 42 -62 173 -12 22 -43 60 -69 85 -25 25 -49 52 -54 60 -21
44 -36 64 -36 50 -1 -12 -3 -12 -11 2 -7 13 -17 16 -39 11 -28 -5 -30 -3 -30
24 0 16 -7 38 -15 49 -14 18 -14 18 -16 -11 -1 -28 -2 -27 -12 11 -7 22 -20
49 -31 59 -16 17 -18 30 -13 109 4 76 2 92 -11 102 -13 10 -20 8 -34 -9 -10
-11 -18 -26 -18 -33 0 -26 -28 -2 -34 28 -3 18 -14 40 -23 51 -10 10 -18 32
-19 48 -4 80 -36 70 -54 -17 -9 -41 -9 -63 1 -92 21 -66 56 -126 92 -158 23
-20 38 -44 42 -67 4 -21 13 -37 20 -37 7 0 12 -11 12 -25 0 -31 11 -44 22 -27
5 8 18 -19 35 -73 15 -47 34 -97 42 -113 7 -15 14 -32 14 -37 0 -6 5 -16 12
-23 7 -7 22 -51 34 -99 13 -49 32 -119 42 -158 11 -38 26 -98 32 -133 11 -51
18 -66 40 -79 20 -12 30 -27 34 -55 8 -49 34 -91 52 -84 8 3 14 1 14 -4 0 -6
-4 -10 -10 -10 -20 0 -9 -37 15 -50 13 -7 22 -18 18 -24 -3 -6 0 -6 7 1 11 10
11 15 -1 30 -13 16 -12 17 4 4 9 -7 17 -19 16 -25 -1 -6 5 -28 15 -49 18 -41
11 -91 -19 -134 -21 -30 -33 -29 -41 2 -7 29 -24 34 -24 8 0 -36 12 -62 25
-57 9 4 0 -33 -25 -108 -60 -179 -89 -287 -99 -373 -5 -44 -14 -90 -18 -103
-8 -20 -10 -19 -28 23 -11 25 -26 45 -33 45 -7 0 -11 4 -8 8 3 5 -4 18 -14 30
-11 12 -20 29 -20 39 0 15 -2 16 -10 3 -8 -13 -10 -12 -10 3 0 9 -3 17 -7 17
-5 0 -24 24 -43 53 -19 28 -37 54 -41 57 -3 3 -16 22 -28 43 -13 21 -32 47
-43 57 -11 10 -25 42 -32 71 -7 30 -30 81 -52 113 -21 33 -43 66 -49 75 -5 9
-18 27 -27 40 -10 13 -18 32 -18 42 0 11 -4 19 -9 19 -5 0 -12 8 -14 18 -3 9
-5 -91 -6 -222 l-1 -240 73 -68 c68 -64 79 -80 37 -58 -25 14 -31 0 -19 -43 7
-25 39 -66 107 -135 85 -85 152 -179 152 -211 0 -24 120 -184 188 -250 l77
-75 180 -3 c120 -2 185 0 195 8 10 7 11 12 4 15 -8 3 -8 22 -2 61 6 37 5 74
-2 103 -5 25 -12 108 -14 185 -2 86 -10 167 -21 210 -16 67 -16 124 1 189 5
21 4 27 -5 22 -6 -4 -12 -1 -13 6 -15 126 -9 306 13 374 5 18 9 36 8 40 -1 5
-1 18 0 28 1 16 4 17 13 8 7 -7 11 -30 9 -51 -2 -28 6 -55 31 -100 18 -33 37
-61 43 -61 20 0 42 -76 54 -180 11 -98 28 -170 44 -186 11 -11 8 15 -9 86 -8
36 -17 97 -18 135 -3 56 -11 85 -41 148 -20 43 -34 81 -31 84 7 8 3 15 56 -95
49 -102 66 -124 80 -102 7 11 13 9 29 -11 29 -33 75 -129 66 -137 -8 -8 -44
37 -45 55 0 8 -9 11 -22 9 -17 -2 -25 -12 -29 -37 -6 -33 -6 -33 -9 11 -4 66
-5 68 -11 75 -3 3 -11 0 -17 -7 -11 -14 12 -155 29 -173 5 -5 9 -16 9 -25 0
-8 9 -23 20 -33 11 -9 20 -29 20 -46 0 -41 33 -108 80 -165 45 -55 52 -71 15
-36 -20 19 -25 20 -25 7 0 -19 66 -67 93 -67 11 0 32 -9 48 -21 24 -17 33 -18
44 -9 11 9 15 9 15 1 0 -6 -4 -11 -10 -11 -22 0 -8 -16 30 -34 31 -15 43 -17
52 -8 7 7 27 12 45 12 30 0 32 -2 21 -20 -18 -29 -3 -35 28 -11 15 11 34 21
43 21 10 0 4 -7 -14 -18 -16 -11 -36 -27 -44 -36 -8 -10 -36 -28 -62 -42 -30
-15 -53 -35 -63 -55 -18 -37 -19 -39 -8 -39 5 0 14 11 20 26 7 14 29 32 49 40
20 9 52 27 71 42 26 20 35 23 42 12 17 -27 -9 -65 -65 -94 -30 -16 -55 -32
-55 -37 0 -9 6 -7 67 25 48 25 52 18 9 -18 -23 -20 -36 -38 -32 -45 5 -8 13
-4 26 11 l19 23 1 -32 0 -33 70 0 c79 0 78 0 83 75 4 46 7 52 43 71 21 12 57
25 79 28 l40 6 -50 -26 c-63 -32 -73 -42 -52 -50 9 -3 35 3 57 15 41 21 79 30
50 11 -12 -7 -12 -12 -2 -22 26 -26 262 -9 262 18 0 10 11 12 47 7 43 -6 46
-5 41 15 -6 20 -5 21 19 5 24 -16 24 -17 7 -24 -11 -4 -31 -8 -46 -8 -33 -1
-58 -10 -58 -22 0 -4 23 -7 51 -6 34 1 53 -2 56 -11 3 -7 -1 -10 -10 -7 -7 3
-20 -1 -27 -10 -11 -14 -10 -17 7 -21 12 -3 23 -14 26 -25 4 -14 14 -19 36
-19 17 0 32 3 32 8 7 34 5 72 -2 72 -6 0 -7 -5 -3 -12 5 -8 2 -9 -10 -5 -10 4
-23 7 -29 8 -7 0 -3 4 8 9 19 8 19 9 -2 9 -13 1 -23 6 -23 11 0 12 -4 12 57 1
28 -6 65 -6 87 -1 l37 8 -6 -52 -7 -53 61 -2 c43 -1 62 2 65 11 6 21 16 41 31
68 9 15 11 28 4 36 -9 11 19 54 35 54 11 0 -3 -56 -30 -116 l-24 -54 30 0 c17
0 30 5 30 11 0 5 37 48 83 94 45 46 114 119 152 161 39 42 80 87 93 99 25 25
28 41 10 48 -10 4 -10 8 -2 14 6 4 14 17 18 28 4 11 20 35 36 54 23 27 32 32
43 23 19 -16 85 3 109 31 14 17 18 36 16 85 -3 56 0 64 19 75 12 7 43 53 68
102 26 50 60 106 75 126 34 42 110 201 110 228 0 6 9 15 20 21 14 8 20 21 20
45 0 41 28 105 47 105 7 0 13 9 13 20 0 11 6 23 14 26 20 8 40 66 25 75 -8 5
-8 12 0 26 17 33 31 104 18 96 -7 -4 -8 0 -3 13 4 10 10 31 12 45 3 14 14 48
25 75 17 43 19 45 16 16 -5 -49 14 -22 24 34 5 26 18 66 29 89 11 23 20 48 20
56 0 8 18 50 40 93 21 44 37 83 34 88 -3 4 0 8 5 8 6 0 11 11 11 25 0 31 32
131 64 200 36 76 33 212 -5 235 -5 3 -11 28 -15 56 -3 27 -17 73 -31 101 -18
37 -24 64 -21 92 3 31 1 37 -9 29 -16 -13 -16 -10 -2 31 6 17 20 36 30 42 12
6 19 20 19 39 0 34 19 80 33 80 5 0 7 15 4 35 -3 19 -1 37 4 40 14 9 11 36 -5
54 -29 32 -17 244 17 305 6 12 10 27 9 34 -2 6 2 12 8 12 5 0 10 6 10 14 0 8
14 26 31 40 17 14 42 47 55 72 23 43 24 53 24 235 0 107 -5 210 -11 235 -10
39 -15 44 -40 44 l-28 0 16 -52 c8 -29 21 -68 29 -87 9 -21 14 -71 14 -135 l0
-101 -59 -105 c-33 -57 -65 -123 -71 -147 -6 -27 -15 -41 -21 -37 -7 4 -7 9
-2 13 12 8 15 71 3 71 -5 0 -22 -17 -39 -37 -17 -21 -31 -33 -31 -28 0 6 28
41 61 78 62 68 76 108 17 49 -20 -22 -37 -31 -49 -27 -11 4 -31 -6 -56 -27
-28 -24 -33 -26 -18 -8 11 14 29 33 40 42 11 9 16 20 13 24 -11 10 -96 -68
-97 -90 -1 -13 4 -16 17 -12 15 5 14 4 -2 -9 -16 -12 -17 -17 -6 -30 11 -13
10 -14 -5 -8 -10 3 -27 15 -37 25 -19 19 -19 20 11 49 50 47 34 57 -20 12
l-32 -27 -18 23 c-10 12 -27 34 -38 49 l-19 26 -81 -13 c-44 -6 -98 -19 -118
-28 -28 -11 -42 -12 -55 -4 -29 18 -43 13 -55 -20 -10 -25 -16 -29 -33 -24
-16 5 -32 -2 -61 -24 -54 -44 -114 -64 -140 -48 -16 10 -25 9 -49 -5 -33 -19
-39 -15 -15 8 14 14 17 27 18 79 0 43 -3 54 -17 49 -17 -7 -28 20 -20 52 5 18
2 24 -10 24 -14 0 -16 16 -14 128 1 70 3 110 5 89 4 -31 7 -35 17 -24 13 13
25 96 29 209 l2 57 -47 -1 c-46 0 -47 0 -47 -31 1 -45 -11 -178 -16 -188 -3
-4 1 -13 8 -21 8 -7 12 -19 9 -27 -2 -7 0 -23 6 -34 6 -12 13 -51 16 -87 3
-36 9 -84 12 -107 4 -29 2 -43 -5 -43 -6 0 -11 16 -11 35 0 19 -4 35 -9 35 -5
0 -13 -40 -17 -90 -3 -49 -11 -90 -16 -90 -5 0 -7 12 -4 28 3 15 8 50 11 77 3
28 8 65 11 83 3 19 1 32 -6 32 -5 0 -10 -9 -10 -21 0 -11 -5 -30 -12 -42 -7
-12 -11 -32 -9 -44 1 -13 -2 -23 -7 -23 -12 0 -12 62 1 78 5 6 6 12 2 12 -4 0
-3 6 3 13 12 14 5 57 -8 57 -5 0 -12 -15 -15 -32 -4 -18 -22 -54 -40 -79 -18
-25 -36 -56 -40 -68 -4 -12 -9 -21 -11 -18 -7 7 17 67 27 67 5 0 9 9 9 20 0
11 5 20 10 20 6 0 10 7 10 16 0 8 -4 12 -10 9 -14 -9 -12 16 5 65 18 51 19 63
3 58 -11 -4 -49 -116 -71 -210 -6 -27 -14 -48 -18 -48 -8 0 4 60 31 140 11 35
19 71 17 80 -5 20 -53 -86 -79 -177 -12 -40 -23 -71 -25 -69 -3 3 21 109 43
184 10 34 -13 27 -29 -10 -20 -45 -44 -114 -57 -167 -6 -23 -13 -41 -15 -39
-4 4 10 66 40 172 20 70 14 82 -14 28 -20 -39 -38 -58 -46 -50 -3 2 6 20 19
39 32 47 76 158 69 175 -3 8 -1 14 5 14 5 0 10 16 10 35 0 19 -4 35 -10 35 -5
0 -6 5 -3 10 3 6 0 10 -8 10 -8 0 -18 11 -21 25 -4 14 -13 25 -20 25 -14 0
-46 88 -46 124 0 13 -12 16 -60 16 l-60 0 0 -32 c0 -23 -3 -29 -9 -19 -5 7 -6
22 -4 32 4 14 0 19 -16 19 -12 0 -21 -6 -21 -16z m55 -64 c3 -5 1 -10 -4 -10
-6 0 -11 5 -11 10 0 6 2 10 4 10 3 0 8 -4 11 -10z m476 -37 c-12 -20 -14 -14
-5 12 4 9 9 14 11 11 3 -2 0 -13 -6 -23z m-431 -33 c4 0 5 -10 2 -22 -6 -23
-6 -23 -13 2 -4 14 -7 32 -7 40 0 10 2 9 5 -2 2 -10 8 -18 13 -18z m457 -42
c-3 -8 -6 -5 -6 6 -1 11 2 17 5 13 3 -3 4 -12 1 -19z m-1820 -4 c-3 -3 -12 -4
-19 -1 -8 3 -5 6 6 6 11 1 17 -2 13 -5z m277 -3 c3 -5 -1 -11 -9 -15 -24 -9
-17 -24 20 -41 19 -9 39 -23 46 -31 9 -11 7 -14 -10 -14 -12 0 -47 -7 -79 -15
-102 -26 -365 -73 -444 -80 -83 -7 -100 -17 -75 -43 13 -12 19 -13 31 -3 9 7
21 11 28 8 19 -7 -42 -28 -62 -22 -18 6 -29 33 -30 70 0 30 -17 52 -30 39 -7
-7 -6 -25 5 -59 16 -54 12 -74 -6 -29 -38 98 -39 101 -20 123 10 12 24 21 31
21 7 0 49 9 94 20 44 10 94 21 110 24 53 9 141 27 159 32 10 3 17 0 17 -9 0
-12 8 -13 48 -5 26 6 50 15 53 21 4 5 25 8 48 4 23 -3 44 -1 47 4 7 12 21 12
28 0z m243 -7 c-3 -3 -12 -4 -19 -1 -8 3 -5 6 6 6 11 1 17 -2 13 -5z m-612
-14 c-3 -5 -19 -10 -34 -10 -15 0 -50 -7 -76 -15 -46 -13 -78 -13 -42 1 80 30
164 44 152 24z m1449 -69 c-9 -23 -18 -40 -21 -38 -2 3 1 15 6 28 5 13 12 33
15 43 4 10 9 17 12 14 3 -3 -3 -24 -12 -47z m146 13 c0 -15 -22 -44 -30 -39
-6 4 -5 14 3 25 11 19 27 27 27 14z m-1080 -46 c0 -4 -8 -8 -17 -8 -21 1 -55
24 -47 32 7 8 64 -14 64 -24z m983 -25 c-9 -15 -22 -31 -27 -34 -5 -4 1 -12
13 -18 19 -10 22 -9 31 13 6 17 15 24 24 20 9 -3 12 -12 9 -21 -5 -12 -3 -14
7 -8 7 5 11 4 8 -1 -3 -5 -13 -26 -22 -47 -15 -36 -16 -37 -38 -23 -16 10 -28
12 -38 6 -8 -5 -26 -10 -39 -10 -23 0 -24 1 -6 14 12 8 16 20 13 34 -4 15 2
28 21 44 14 13 33 36 41 51 8 16 16 24 18 19 2 -6 -5 -23 -15 -39z m-1800 16
c4 -16 3 -18 -9 -8 -7 6 -11 15 -8 20 8 13 11 11 17 -12z m1849 -11 c-7 -7
-12 -8 -12 -2 0 6 3 14 7 17 3 4 9 5 12 2 2 -3 -1 -11 -7 -17z m-1918 -9 c-7
-12 13 -48 44 -81 14 -16 22 -28 16 -28 -12 0 -84 99 -84 116 0 8 6 11 15 8 8
-4 12 -10 9 -15z m951 -3 c36 -29 28 -46 -9 -19 -25 18 -42 43 -28 43 4 0 21
-11 37 -24z m245 4 c0 -5 -8 -10 -17 -10 -15 0 -16 2 -3 10 19 12 20 12 20 0z
m70 0 c12 -8 11 -10 -7 -10 -13 0 -23 5 -23 10 0 13 11 13 30 0z m-1216 -22
c10 -38 6 -45 -9 -18 -17 29 -18 40 -6 40 5 0 11 -10 15 -22z m753 -34 c3 -9
13 -14 24 -11 23 6 24 -2 4 -30 -14 -20 -13 -24 10 -47 14 -14 28 -26 30 -26
2 0 1 23 -2 50 l-6 50 24 -12 c53 -28 58 -39 34 -75 -25 -35 -24 -93 0 -73 7
6 12 19 10 28 -1 9 2 25 7 35 9 17 12 16 34 -14 13 -18 24 -35 24 -38 0 -3
-17 -16 -38 -28 -36 -20 -39 -25 -37 -64 2 -56 17 -59 39 -9 10 22 26 45 37
50 10 6 19 17 19 25 0 8 5 15 10 15 6 0 10 -9 10 -20 0 -11 7 -23 15 -26 8 -4
15 -12 15 -20 0 -8 -7 -14 -15 -14 -19 0 -19 -27 0 -46 18 -19 35 -10 36 19 1
17 3 15 11 -10 8 -24 7 -40 -2 -63 -13 -32 -32 -36 -36 -7 -1 9 -9 23 -17 32
-8 8 -17 20 -20 27 -2 7 -8 10 -12 6 -10 -9 3 -46 25 -66 20 -19 17 -72 -5
-72 -7 0 -15 -7 -19 -15 -9 -24 -29 -18 -23 7 7 24 -8 58 -24 58 -7 0 -9 -10
-4 -27 6 -27 6 -27 -14 -9 -12 11 -24 16 -28 12 -5 -4 7 -20 25 -35 l34 -27
-24 -11 c-22 -10 -28 -7 -64 32 -21 23 -47 53 -56 66 l-18 24 4 -39 c1 -22 10
-44 20 -52 15 -10 11 -12 -26 -8 -24 3 -69 9 -101 15 -31 6 -61 8 -65 5 -4 -2
-6 11 -4 29 4 31 2 34 -22 31 -37 -4 -42 -13 -21 -36 22 -24 7 -27 -44 -9 -35
12 -37 18 -15 60 15 30 11 74 -6 64 -5 -3 -17 -23 -26 -43 -10 -20 -19 -38
-20 -40 -1 -2 -12 1 -23 8 -23 12 -28 49 -9 68 9 9 9 15 1 23 -8 8 -15 5 -26
-11 -10 -14 -17 -18 -22 -10 -4 6 3 22 16 36 25 27 7 34 -22 8 -15 -14 -20
-11 -53 30 -33 39 -36 47 -25 65 7 11 23 25 36 32 22 12 31 29 16 29 -5 0 -23
-9 -41 -20 l-34 -21 7 23 c14 46 37 88 46 82 5 -3 7 -10 3 -15 -3 -5 -2 -8 3
-7 21 5 53 -16 65 -42 15 -34 20 -36 42 -14 18 17 19 24 8 41 -8 13 -82 47
-82 38 0 -4 -5 -3 -10 0 -23 14 9 34 40 25 18 -5 32 -4 39 3 8 8 17 5 31 -11
12 -12 25 -22 29 -22 5 0 12 -12 15 -26 5 -20 11 -24 29 -18 29 9 30 10 24 28
-3 8 -25 24 -49 35 -34 15 -39 21 -26 26 16 6 149 -1 153 -7 0 -2 6 -15 13
-30 9 -21 17 -27 34 -24 13 1 22 6 21 9 -2 4 -5 6 -7 5 -2 -2 -14 6 -26 17
l-22 20 44 11 c60 16 68 16 75 -2z m207 -20 c9 -8 16 -23 16 -32 -1 -14 -5
-12 -20 7 -30 35 -26 56 4 25z m-910 -9 c3 -8 1 -15 -4 -15 -6 0 -10 7 -10 15
0 8 2 15 4 15 2 0 6 -7 10 -15z m1007 -78 c-8 -8 -11 -7 -11 1 0 7 -9 22 -20
34 -11 12 -20 26 -20 32 0 6 14 -5 31 -23 21 -24 27 -37 20 -44z m336 67 c-3
-3 -12 -4 -19 -1 -8 3 -5 6 6 6 11 1 17 -2 13 -5z m-1373 -49 c-4 -8 -18 -18
-33 -22 -14 -3 -37 -13 -51 -21 l-25 -16 21 21 c20 20 72 52 86 53 4 0 5 -7 2
-15z m1746 -18 c-19 -19 -46 -40 -60 -47 -24 -13 -24 -12 -10 5 16 20 89 75
99 75 3 0 -10 -15 -29 -33z m-500 -39 c0 -15 -15 -8 -50 23 l-35 30 42 -23
c24 -13 43 -26 43 -30z m450 42 c0 -5 -5 -10 -11 -10 -5 0 -7 5 -4 10 3 6 8
10 11 10 2 0 4 -4 4 -10z m-1606 -20 c4 -4 -4 -7 -18 -7 -14 1 -28 8 -31 15
-3 10 1 11 18 7 12 -4 26 -11 31 -15z m996 -15 c0 -14 -2 -25 -4 -25 -2 0 -6
11 -8 25 -3 14 -1 25 3 25 5 0 9 -11 9 -25z m763 2 c-5 -25 -40 -68 -83 -102
-15 -12 -10 -4 12 22 20 23 44 56 53 72 19 37 24 39 18 8z m-1693 -62 c0 -11
4 -25 9 -30 14 -15 23 -55 13 -55 -5 0 -14 12 -21 27 -12 25 -14 26 -25 11 -7
-10 -16 -15 -19 -12 -3 4 0 13 8 21 18 17 19 33 4 33 -5 0 -7 -4 -4 -10 3 -5
2 -10 -3 -10 -18 0 -21 14 -6 31 10 11 12 19 5 24 -6 3 -11 13 -11 22 0 13 5
12 25 -7 14 -13 25 -33 25 -45z m2027 -7 c-2 -13 -4 -3 -4 22 0 25 2 35 4 23
2 -13 2 -33 0 -45z m-2087 36 c0 -2 -9 -4 -21 -4 -11 0 -18 4 -14 10 5 8 35 3
35 -6z m1105 6 c3 -5 1 -10 -4 -10 -6 0 -11 5 -11 10 0 6 2 10 4 10 3 0 8 -4
11 -10z m857 -12 c-7 -7 -12 -8 -12 -2 0 6 3 14 7 17 3 4 9 5 12 2 2 -3 -1
-11 -7 -17z m178 12 c0 -5 -5 -10 -11 -10 -5 0 -7 5 -4 10 3 6 8 10 11 10 2 0
4 -4 4 -10z m860 -14 c-14 -13 -27 -22 -29 -20 -7 6 31 44 43 44 6 0 -1 -11
-14 -24z m-1358 -38 c-23 -23 -45 -39 -49 -35 -3 4 13 25 36 48 57 52 68 41
13 -13z m-633 2 c0 -10 -3 -8 -9 5 -12 27 -12 43 0 25 5 -8 9 -22 9 -30z m179
28 c-6 -18 -28 -21 -28 -4 0 9 7 16 16 16 9 0 14 -5 12 -12z m29 -20 c-3 -8
-6 -5 -6 6 -1 11 2 17 5 13 3 -3 4 -12 1 -19z m-1280 -10 c-3 -8 -6 -5 -6 6
-1 11 2 17 5 13 3 -3 4 -12 1 -19z m30 0 c-3 -8 -6 -5 -6 6 -1 11 2 17 5 13 3
-3 4 -12 1 -19z m1288 12 c3 -5 -1 -10 -10 -10 -9 0 -13 5 -10 10 3 6 8 10 10
10 2 0 7 -4 10 -10z m599 -68 c-17 -16 -17 -16 -10 3 5 11 11 31 15 45 l6 25
3 -28 c2 -16 -4 -34 -14 -45z m1109 43 c-3 -9 -8 -14 -10 -11 -3 3 -2 9 2 15
9 16 15 13 8 -4z m97 9 c0 -3 -7 -12 -15 -20 -16 -17 -18 -14 -9 10 6 15 24
23 24 10z m-1339 -27 c-10 -9 -11 -8 -5 6 3 10 9 15 12 12 3 -3 0 -11 -7 -18z
m-401 3 c0 -5 -4 -10 -10 -10 -5 0 -10 5 -10 10 0 6 5 10 10 10 6 0 10 -4 10
-10z m646 -36 c-4 -20 -10 -34 -13 -30 -3 3 -2 21 1 42 4 20 10 34 13 30 3 -3
2 -21 -1 -42z m694 36 c0 -5 -7 -10 -16 -10 -8 0 -12 5 -9 10 3 6 10 10 16 10
5 0 9 -4 9 -10z m-2605 -39 c-3 -5 4 -12 15 -16 11 -3 20 -10 20 -15 0 -5 -7
-7 -15 -3 -12 4 -11 -3 6 -31 12 -20 16 -36 10 -36 -6 0 -19 17 -29 38 -9 20
-20 39 -24 42 -3 3 -4 18 -1 34 5 23 7 26 15 12 5 -9 7 -20 3 -25z m123 19 c7
-11 8 -20 2 -20 -5 0 -14 9 -20 20 -6 11 -7 20 -3 20 5 0 14 -9 21 -20z m1102
-7 c0 -12 -3 -13 -14 -4 -11 10 -17 8 -25 -6 -13 -23 -14 -8 -1 17 12 22 40
16 40 -7z m540 1 c0 -8 -4 -14 -10 -14 -5 0 -10 9 -10 21 0 11 5 17 10 14 6
-3 10 -13 10 -21z m-657 -4 c-3 -12 -8 -19 -11 -16 -5 6 5 36 12 36 2 0 2 -9
-1 -20z m560 7 c4 3 7 4 7 1 0 -10 -71 -60 -77 -54 -10 10 19 36 39 36 18 0
19 2 7 18 -12 15 -12 16 2 5 9 -7 19 -10 22 -6z m373 -5 c-3 -3 0 -12 6 -21 8
-10 4 -9 -10 3 -25 22 -29 38 -7 29 9 -3 13 -8 11 -11z m604 14 c0 -2 -7 -9
-15 -16 -12 -10 -15 -10 -15 4 0 9 7 16 15 16 8 0 15 -2 15 -4z m-523 -43 c-9
-9 -20 -13 -24 -9 -4 4 1 14 11 22 25 18 35 8 13 -13z m383 17 c0 -5 -5 -10
-11 -10 -5 0 -7 5 -4 10 3 6 8 10 11 10 2 0 4 -4 4 -10z m152 -12 c-7 -7 -12
-8 -12 -2 0 6 3 14 7 17 3 4 9 5 12 2 2 -3 -1 -11 -7 -17z m-1397 2 c-3 -5
-11 -10 -16 -10 -6 0 -7 5 -4 10 3 6 11 10 16 10 6 0 7 -4 4 -10z m44 -16 c-6
-8 -18 -14 -27 -14 -13 0 -12 3 3 20 20 22 43 17 24 -6z m406 -11 c-8 -44 -28
-84 -21 -43 7 42 18 80 23 80 3 0 2 -17 -2 -37z m840 27 c3 -5 -1 -10 -9 -10
-9 0 -16 5 -16 10 0 6 4 10 9 10 6 0 13 -4 16 -10z m-2379 -42 c7 -12 17 -32
23 -44 13 -29 79 -79 130 -100 40 -16 44 -16 52 -1 9 15 39 14 39 -2 0 -8 -50
-31 -70 -31 -39 0 -199 132 -230 190 -11 20 -10 22 4 17 9 -4 16 -1 16 5 0 15
17 -1 36 -34z m-277 -8 c0 -10 -3 -8 -9 5 -12 27 -12 43 0 25 5 -8 9 -22 9
-30z m1108 8 c-3 -7 -5 -2 -5 12 0 14 2 19 5 13 2 -7 2 -19 0 -25z m213 22 c0
-5 -5 -10 -11 -10 -5 0 -7 5 -4 10 3 6 8 10 11 10 2 0 4 -4 4 -10z m170 -7 c0
-20 -28 -53 -47 -53 -9 0 -7 10 9 35 25 38 38 44 38 18z m430 1 c0 -8 -5 -12
-10 -9 -6 4 -8 11 -5 16 9 14 15 11 15 -7z m105 -79 c-9 -56 -13 -69 -14 -42
-1 36 18 131 25 125 1 -2 -3 -39 -11 -83z m799 70 c-6 -16 -24 -21 -24 -7 0
11 11 22 21 22 5 0 6 -7 3 -15z m-1404 -35 c-7 -16 -17 -30 -22 -30 -5 0 -7 4
-4 9 3 4 10 21 16 36 6 15 13 25 17 22 3 -4 0 -20 -7 -37z m220 36 c0 -2 -7
-7 -16 -10 -8 -3 -12 -2 -9 4 6 10 25 14 25 6z m105 -30 c-14 -14 -23 -31 -20
-36 3 -6 -1 -10 -10 -10 -9 0 -13 -4 -10 -10 3 -5 2 -10 -4 -10 -5 0 -11 6
-14 13 -2 6 -4 -13 -3 -44 1 -31 7 -63 14 -72 11 -13 10 -16 -5 -21 -15 -5
-18 -14 -15 -42 3 -20 7 -32 11 -27 7 11 81 13 81 3 0 -4 -15 -7 -32 -6 -18 1
-39 -5 -46 -12 -8 -7 -18 -10 -23 -7 -5 4 -9 1 -9 -5 0 -8 7 -9 18 -5 9 4 23
9 31 12 10 5 12 0 6 -18 -11 -36 -43 -97 -55 -104 -15 -9 -13 -2 16 49 15 26
24 50 20 53 -3 4 -6 1 -6 -6 0 -7 -11 -11 -27 -9 -28 3 -34 -3 -69 -89 -9 -24
-24 -43 -32 -43 -8 0 -12 -6 -8 -15 3 -8 -13 -51 -35 -94 -22 -44 -44 -93 -49
-110 -9 -32 1 -48 21 -35 8 5 8 8 0 14 -8 4 8 46 50 131 33 68 58 113 55 99
-4 -14 -11 -46 -16 -72 -5 -26 -16 -63 -25 -83 -9 -22 -12 -43 -7 -52 9 -16
20 8 61 138 24 74 58 132 41 70 -6 -23 -6 -39 1 -47 7 -9 5 -14 -10 -19 -22
-7 -42 -77 -34 -120 3 -15 1 -25 -6 -25 -6 0 -11 4 -11 9 0 5 -18 -8 -40 -29
-22 -21 -40 -44 -40 -53 0 -21 -27 -42 -33 -25 -3 7 -6 3 -6 -9 -1 -12 -7 -28
-13 -35 -17 -19 -37 -50 -44 -68 -3 -8 -33 -35 -66 -60 -33 -25 -73 -57 -89
-72 -34 -33 -80 -103 -72 -111 3 -3 1 -12 -3 -19 -14 -22 -15 -48 -1 -48 6 -1
-1 -7 -18 -14 -25 -11 -31 -10 -35 0 -4 11 -10 11 -30 1 -41 -21 -60 -27 -60
-18 0 5 14 14 30 21 17 7 28 15 26 18 -3 3 4 13 15 23 22 19 18 39 -7 39 -10
0 -14 -6 -10 -17 3 -14 -9 -25 -52 -46 -31 -15 -48 -21 -38 -12 11 8 24 15 29
15 4 0 5 5 2 10 -8 13 -45 13 -45 -1 0 -5 -13 -15 -30 -20 -16 -6 -30 -17 -30
-24 0 -7 -5 -15 -12 -17 -7 -3 -9 -12 -5 -22 7 -17 9 -16 32 8 25 28 46 37 25
11 -7 -9 -10 -19 -6 -23 4 -4 12 1 17 11 6 9 18 17 27 17 16 -1 16 -1 0 -11
-20 -11 -24 -39 -6 -39 6 0 20 7 30 17 17 15 18 15 18 -5 0 -22 4 -24 50 -26
21 -1 25 -5 22 -28 -1 -16 2 -28 8 -28 5 0 10 5 10 10 0 6 5 10 12 10 6 0 23
10 36 23 l25 22 -23 -32 c-22 -31 -22 -33 -6 -58 35 -54 141 -100 224 -97 30
1 52 -2 52 -8 0 -5 -10 -11 -22 -11 -17 -1 -19 -2 -5 -6 19 -5 22 -14 8 -28
-4 -6 -21 -44 -36 -85 -16 -41 -32 -79 -37 -84 -4 -6 -8 -22 -8 -36 0 -15 -3
-29 -6 -33 -11 -11 -34 5 -34 23 0 11 -4 22 -10 25 -5 3 -10 1 -10 -6 0 -7 -8
-9 -22 -5 -13 4 -54 13 -92 21 -38 9 -94 30 -125 49 -31 19 -80 42 -110 52
-39 14 -57 26 -65 45 -6 14 -16 24 -23 22 -6 -2 -23 3 -37 13 -16 10 -26 12
-26 5 0 -6 -15 -11 -34 -11 -18 0 -54 -11 -80 -25 -26 -14 -52 -25 -57 -25 -6
0 -22 -9 -36 -20 -14 -11 -33 -20 -41 -20 -8 0 -30 -12 -49 -26 -19 -14 -40
-27 -46 -28 -51 -9 -149 -95 -180 -158 -14 -29 -44 -71 -67 -93 l-42 -40 6 63
c6 59 39 161 55 172 4 3 24 27 44 53 21 27 37 45 37 41 0 -8 62 54 95 96 11
14 36 38 55 54 19 15 35 35 37 44 1 9 7 18 12 20 17 6 13 22 -6 22 -9 0 -13
-3 -10 -6 9 -10 -11 -42 -34 -54 -19 -11 -19 -10 -4 26 8 20 26 46 40 58 14
12 25 27 25 34 0 7 3 12 8 12 4 1 21 12 37 26 17 15 23 23 15 19 -10 -4 -9 -1
2 8 10 8 15 17 11 20 -3 4 1 9 10 13 15 5 107 135 107 150 0 4 11 22 25 40 14
18 25 37 25 43 0 6 4 11 8 11 4 0 16 14 26 32 19 31 34 50 89 112 46 52 111
138 147 196 19 30 49 73 67 96 26 32 71 116 78 144 11 43 15 61 20 93 3 21 12
37 19 37 8 0 28 28 46 63 17 34 38 69 45 77 22 26 55 90 55 108 0 10 7 27 16
38 15 19 16 19 9 -1 -27 -83 -40 -112 -61 -149 -14 -22 -27 -49 -31 -58 -3
-10 -9 -18 -14 -18 -16 0 -9 -30 10 -41 11 -7 16 -19 13 -31 -4 -15 2 -18 31
-18 40 0 67 -8 67 -21 0 -4 11 -19 25 -33 27 -27 47 -16 22 12 -7 9 -17 25
-20 34 -4 11 -25 23 -52 30 -25 7 -45 16 -45 20 0 4 -9 8 -20 8 -11 0 -20 3
-20 8 1 4 32 40 71 81 38 41 72 85 75 97 3 12 23 34 45 48 55 37 60 32 11 -10
-23 -19 -42 -41 -42 -47 0 -7 -22 -35 -50 -63 -27 -28 -52 -62 -55 -76 -6 -22
-3 -26 23 -31 39 -8 91 -53 108 -94 15 -34 34 -44 34 -18 0 45 -53 104 -119
131 -32 13 -33 16 -19 30 23 24 92 10 118 -23 23 -30 35 -25 26 10 -4 17 -19
30 -46 41 -22 9 -40 17 -40 19 0 2 12 14 26 28 l26 24 -7 -27 c-5 -18 -3 -28
4 -28 15 0 34 47 34 85 0 38 46 80 77 70 24 -8 16 -27 -9 -23 -21 4 -51 -19
-51 -38 0 -8 2 -14 4 -14 13 0 138 62 180 88 57 37 69 36 31 -2z m-1655 -12
c12 -19 20 -37 18 -39 -2 -3 -15 13 -27 35 -28 50 -21 53 9 4z m1057 14 c-3
-8 -6 -5 -6 6 -1 11 2 17 5 13 3 -3 4 -12 1 -19z m139 -19 c-9 -19 -15 -29
-16 -22 0 18 20 66 25 61 3 -3 -1 -20 -9 -39z m1746 19 c-7 -7 -12 -8 -12 -2
0 6 3 14 7 17 3 4 9 5 12 2 2 -3 -1 -11 -7 -17z m-832 8 c0 -2 -7 -7 -16 -10
-8 -3 -12 -2 -9 4 6 10 25 14 25 6z m681 -13 c13 -16 12 -17 -3 -4 -17 13 -22
21 -14 21 2 0 10 -8 17 -17z m219 2 c0 -8 -5 -15 -11 -15 -6 0 -9 -7 -5 -15 6
-16 -9 -21 -19 -5 -6 10 15 50 27 50 5 0 8 -7 8 -15z m-540 1 c0 -2 -9 -6 -20
-9 -11 -3 -20 -1 -20 4 0 5 9 9 20 9 11 0 20 -2 20 -4z m-2499 -91 c28 -6 31
-10 25 -37 -3 -17 -6 -37 -6 -44 0 -18 -18 -18 -37 1 -21 21 -53 109 -52 143
1 25 2 24 20 -15 15 -32 26 -43 50 -48z m1826 38 c-3 -10 -5 -2 -5 17 0 19 2
27 5 18 2 -10 2 -26 0 -35z m217 26 c-3 -6 -3 -18 1 -27 6 -16 8 -15 21 2 7
11 17 17 20 13 7 -6 -11 -171 -23 -222 -11 -41 -4 -268 8 -279 5 -6 9 -24 8
-40 l-1 -31 -9 32 c-7 24 -14 30 -28 26 -31 -8 -44 -139 -16 -167 8 -8 15 -21
15 -30 0 -8 8 -20 18 -25 16 -9 19 -25 21 -123 1 -62 6 -117 10 -123 5 -5 5
-19 1 -30 -9 -25 -1 -57 13 -48 6 3 7 1 3 -6 -11 -17 12 -148 29 -175 12 -17
14 -37 9 -78 -6 -48 -10 -56 -35 -65 -21 -8 -27 -8 -23 -1 5 7 -1 9 -14 6 -12
-4 -22 -1 -22 4 0 6 -13 8 -32 4 l-33 -6 26 24 c14 13 37 26 49 28 28 4 39 28
13 28 -10 0 -35 -9 -56 -19 -50 -25 -47 -12 3 17 22 13 38 27 35 33 -7 10 -61
-18 -98 -50 -41 -35 -142 -13 -149 31 -2 13 -11 24 -23 26 -11 2 -36 19 -55
37 -33 30 -70 55 -85 55 -3 0 -5 -8 -4 -17 5 -49 -1 -75 -16 -69 -8 3 -39 1
-67 -4 -29 -6 -69 -11 -90 -12 -24 -1 -38 -6 -38 -14 0 -9 13 -12 39 -11 27 1
47 -5 60 -18 24 -21 20 -35 -4 -15 -9 8 -33 15 -53 17 -20 2 -42 9 -49 15 -8
6 -13 7 -13 1 0 -6 -18 -13 -40 -17 -21 -3 -44 -14 -49 -24 -6 -9 -11 -11 -11
-5 0 19 -70 12 -71 -7 0 -8 -5 -3 -11 13 -10 27 -22 34 -32 18 -3 -5 1 -11 9
-15 19 -7 20 -26 1 -26 -21 0 -30 38 -14 57 7 9 8 14 2 10 -15 -8 -42 22 -28
31 5 4 22 22 37 40 21 26 27 29 27 15 0 -15 2 -15 9 -3 6 8 8 17 5 21 -2 4 1
11 7 15 8 4 9 3 5 -4 -4 -7 -1 -12 8 -12 9 0 15 5 13 12 -1 6 9 15 23 19 14 4
21 7 16 8 -5 1 -3 7 4 15 6 8 18 12 26 9 8 -3 14 -2 13 3 -3 11 42 86 48 81 2
-3 -2 -17 -9 -32 -10 -23 -10 -29 0 -33 6 -2 12 -12 12 -23 0 -29 15 -23 44
20 34 48 76 89 76 72 0 -8 8 -10 23 -6 22 6 22 6 -2 -15 -18 -16 -21 -24 -13
-32 7 -7 13 -10 15 -7 17 24 57 90 57 94 0 3 -7 5 -16 5 -12 0 -15 5 -9 23 4
12 9 38 11 57 1 19 3 37 3 39 1 3 7 -3 14 -14 13 -16 14 -14 20 26 8 54 56
175 57 141 0 -13 4 -20 10 -17 6 3 10 -1 10 -9 0 -8 -4 -18 -10 -21 -12 -7
-13 -35 -2 -35 8 0 20 33 38 100 11 41 52 128 65 136 7 4 10 3 6 -3 -12 -19
-25 -93 -16 -93 4 0 11 17 15 38 12 65 21 65 16 0 -3 -42 -1 -60 6 -53 5 6 12
38 14 73 3 40 10 67 18 72 8 5 11 12 7 16 -3 4 -14 1 -23 -7 -16 -13 -16 -12
-5 9 7 13 10 26 7 29 -10 10 -36 -6 -36 -22 0 -9 -11 -31 -24 -48 -23 -31 -58
-103 -70 -142 -3 -11 -3 -2 0 20 3 22 14 59 24 82 18 41 15 59 -6 45 -15 -10
-54 -77 -64 -109 -5 -15 -20 -59 -34 -98 l-26 -70 5 57 c3 33 1 60 -5 63 -12
8 -13 42 -1 49 4 3 6 -7 3 -21 -4 -24 -3 -25 10 -12 9 8 14 17 11 22 -2 4 1 7
7 7 6 0 8 5 5 10 -3 6 -1 10 5 10 8 0 10 9 6 25 -4 17 -1 30 12 43 13 13 16
25 11 38 -4 10 -8 28 -8 39 -1 17 1 17 9 5 5 -8 10 -10 10 -4 0 5 -6 16 -12
23 -11 10 -9 16 8 30 12 9 24 33 27 52 3 18 7 43 9 54 2 11 7 23 13 27 12 9 7
13 -23 23 -20 6 -22 4 -18 -20 4 -21 2 -26 -11 -21 -12 5 -14 1 -10 -13 5 -22
-15 -46 -28 -33 -5 4 -5 -1 -2 -10 4 -10 2 -18 -4 -18 -6 0 -6 -8 1 -21 7 -11
9 -23 6 -27 -3 -3 -6 0 -6 6 0 19 -18 14 -23 -5 -3 -13 -5 -12 -6 5 0 13 6 36
14 52 9 17 13 30 10 30 -3 0 6 18 20 40 14 23 30 52 35 65 5 14 14 25 19 25 5
0 12 8 14 18 4 13 5 11 6 -5 0 -13 -3 -23 -9 -23 -5 0 -10 -9 -10 -20 0 -11 5
-20 11 -20 6 0 9 7 6 15 -4 8 -2 17 3 20 6 4 10 26 10 50 0 45 17 95 31 95 5
0 6 8 3 18 -5 13 -4 14 4 3 11 -15 47 -7 37 8 -3 5 -1 12 5 16 6 4 7 -23 3
-75 -7 -93 10 -113 21 -22 3 31 11 77 16 102 7 35 8 24 4 -49 -5 -75 -3 -92 8
-89 7 3 12 14 11 24 -4 30 19 127 35 149 13 19 13 19 6 -5 -15 -44 -11 -105 6
-105 10 0 14 8 12 25 l-2 25 15 -28 c19 -33 34 -28 27 9 -3 19 -1 25 7 20 6
-4 11 -16 11 -27 0 -12 5 -19 13 -17 8 3 13 31 15 82 2 46 7 74 13 71 5 -4 7
-11 3 -16z m386 11 c0 -5 -4 -10 -10 -10 -5 0 -10 5 -10 10 0 6 5 10 10 10 6
0 10 -4 10 -10z m-1487 -17 c-8 -3 -11 -14 -7 -28 4 -17 0 -26 -14 -34 -30
-16 -34 -14 -27 12 9 27 46 69 54 61 3 -4 0 -9 -6 -11z m331 -27 c-10 -20 -21
-36 -26 -36 -5 0 1 18 12 41 26 50 38 46 14 -5z m-916 -115 c21 -11 32 -12 56
-2 36 15 35 15 104 13 31 -1 51 -6 47 -11 -8 -14 28 -31 67 -31 18 0 28 -4 21
-8 -6 -4 -14 -28 -18 -54 -4 -29 -12 -48 -20 -48 -8 0 -11 -8 -8 -20 3 -11 0
-20 -6 -20 -6 0 -11 9 -11 20 0 27 -28 25 -39 -2 -5 -13 -23 -38 -40 -56 -31
-33 -34 -65 -5 -41 8 6 18 8 22 4 4 -4 1 -10 -5 -12 -16 -6 -17 -23 -2 -23 12
0 38 29 39 43 0 5 -4 5 -10 2 -18 -11 -10 19 12 45 14 16 22 21 25 12 3 -6 10
-9 15 -6 7 4 8 2 4 -5 -4 -6 -11 -9 -16 -6 -14 9 -28 -19 -25 -52 2 -34 -12
-43 -68 -43 -19 0 -27 -4 -24 -12 3 -9 23 -12 64 -10 l60 3 -13 -59 c-8 -32
-21 -76 -31 -98 -9 -21 -17 -41 -18 -44 0 -3 -11 -32 -24 -65 -17 -46 -20 -64
-12 -78 9 -13 6 -29 -11 -70 -12 -28 -25 -56 -29 -62 -12 -16 -133 -258 -140
-280 -14 -41 -9 50 6 110 8 33 14 81 15 107 0 26 8 69 17 95 22 60 24 227 4
293 -7 25 -25 80 -38 123 -14 43 -26 84 -27 91 -1 8 -8 21 -15 30 -7 9 -10 16
-6 16 5 0 -1 8 -12 18 -12 10 -23 36 -27 67 -4 28 -14 60 -22 73 -18 28 -7 28
23 0 32 -30 30 -2 -2 32 -14 15 -36 58 -48 97 l-23 70 84 -66 c46 -36 95 -72
110 -80z m2482 107 c0 -15 -15 -8 -40 19 l-25 27 33 -19 c17 -11 32 -23 32
-27z m-1695 -4 c-12 -24 -15 -25 -15 -8 0 11 5 25 12 32 18 18 20 8 3 -24z
m605 32 c0 -3 -4 -8 -10 -11 -5 -3 -10 -1 -10 4 0 6 5 11 10 11 6 0 10 -2 10
-4z m247 -48 c-2 -13 -4 -5 -4 17 -1 22 1 32 4 23 2 -10 2 -28 0 -40z m463 46
c0 -6 -65 -34 -77 -33 -4 0 10 9 32 20 45 21 45 21 45 13z m-670 -51 c-11 -17
-11 -17 -6 0 3 10 6 24 7 30 0 9 2 9 5 0 3 -7 0 -20 -6 -30z m-1860 -9 c0 -8
-4 -12 -10 -9 -5 3 -10 13 -10 21 0 8 5 12 10 9 6 -3 10 -13 10 -21z m2380 22
c0 -3 -4 -8 -10 -11 -5 -3 -10 -1 -10 4 0 6 5 11 10 11 6 0 10 -2 10 -4z m290
-16 c0 -31 1 -34 13 -48 9 -12 12 -11 18 5 3 10 3 28 -2 41 -8 22 4 32 16 12
3 -5 15 -10 26 -10 22 0 23 -4 7 -29 -6 -10 -8 -26 -5 -35 10 -25 35 -19 39 9
l3 26 32 -30 c17 -16 46 -35 62 -42 17 -8 31 -17 31 -22 0 -4 11 -17 25 -29
14 -12 25 -29 25 -38 0 -9 5 -21 12 -28 15 -15 9 -21 -23 -24 -27 -3 -54 -32
-44 -48 10 -16 27 -12 53 12 l23 23 -3 -28 c-5 -33 -30 -52 -105 -78 -53 -18
-84 -18 -54 0 14 9 10 13 -24 25 -11 4 -16 4 -12 0 4 -4 2 -13 -4 -21 -6 -7
-8 -13 -3 -13 20 0 -23 -20 -43 -20 -16 0 -25 8 -29 24 -4 16 -11 23 -20 19
-16 -6 -19 -33 -4 -33 5 0 7 -7 4 -15 -9 -22 -23 -18 -36 10 -12 28 -35 28
-30 1 2 -9 -2 -16 -7 -16 -44 0 -138 74 -133 104 3 14 -1 17 -17 11 -12 -4
-21 -2 -21 4 0 6 4 11 8 11 5 0 14 11 20 25 15 33 -1 32 -27 -2 l-21 -28 6 35
c3 19 10 38 17 42 6 4 8 11 3 15 -4 4 -16 -2 -26 -14 -24 -30 -36 -29 -17 1 9
13 13 32 11 43 -4 15 0 22 16 26 17 4 20 10 15 27 -5 17 0 23 29 35 36 15 64
20 53 9 -3 -4 -2 -15 4 -25 7 -14 6 -19 -3 -19 -9 0 -9 -3 2 -10 18 -12 31
-13 28 -2 -1 4 2 17 6 30 6 17 3 27 -9 36 -16 11 -16 13 1 27 19 16 70 36 97
38 11 1 17 -6 17 -19z m307 -45 c17 -32 41 -62 52 -67 16 -5 21 -16 20 -40
l-1 -33 -14 33 c-18 40 -28 42 -20 2 7 -38 -15 -41 -39 -4 -13 20 -14 29 -5
39 9 11 5 28 -19 75 -38 78 -17 73 26 -5z m-1684 40 c-3 -9 -8 -14 -10 -11 -3
3 -2 9 2 15 9 16 15 13 8 -4z m108 -2 c-18 -33 -61 -87 -61 -77 0 6 14 29 31
52 31 43 47 56 30 25z m905 -24 c-9 -19 -15 -29 -16 -22 0 15 22 64 27 60 2
-2 -3 -19 -11 -38z m537 6 c10 -14 15 -25 11 -25 -11 0 -44 32 -44 42 0 15 15
8 33 -17z m69 8 c18 -5 32 -32 22 -42 -4 -3 -9 0 -11 7 -3 6 -11 12 -19 12 -8
0 -14 5 -14 10 0 6 -7 10 -15 10 -8 0 -15 5 -15 11 0 7 7 8 18 4 9 -4 25 -9
34 -12z m-542 -3 c9 13 10 13 10 0 -1 -15 -48 -56 -56 -48 -2 3 2 16 8 30 9
18 15 23 20 15 6 -9 11 -8 18 3z m673 -10 c-3 -11 -7 -20 -8 -20 -1 0 -5 9 -8
20 -3 12 0 20 8 20 8 0 11 -8 8 -20z m-2343 -7 c25 -3 39 -8 33 -10 -7 -3 -13
-11 -13 -19 0 -8 -8 -14 -17 -14 -15 0 -16 2 -3 10 25 16 4 22 -68 21 -53 -1
-73 3 -83 16 -15 17 3 16 151 -4z m345 7 c-3 -5 -13 -10 -21 -10 -8 0 -12 5
-9 10 3 6 13 10 21 10 8 0 12 -4 9 -10z m1162 -22 c-3 -8 -6 -5 -6 6 -1 11 2
17 5 13 3 -3 4 -12 1 -19z m-477 8 c0 -3 -4 -8 -10 -11 -5 -3 -10 -1 -10 4 0
6 5 11 10 11 6 0 10 -2 10 -4z m452 -40 c-6 -48 -12 -46 -12 5 0 22 4 38 8 35
4 -3 6 -21 4 -40z m55 12 c-3 -7 -5 -2 -5 12 0 14 2 19 5 13 2 -7 2 -19 0 -25z
m30 10 c-3 -8 -6 -5 -6 6 -1 11 2 17 5 13 3 -3 4 -12 1 -19z m-1320 -18 c0
-16 -5 -30 -10 -30 -6 0 -7 3 -4 7 4 3 2 13 -5 20 -9 11 -9 17 3 24 8 5 14 9
15 9 0 0 1 -13 1 -30z m83 16 c0 -2 -11 -11 -25 -20 -20 -13 -23 -13 -19 -2 3
8 13 17 22 19 10 3 18 5 20 6 1 0 2 -1 2 -3z m2066 -27 c-3 -17 -6 -40 -6 -51
0 -10 -4 -16 -10 -13 -11 7 -13 54 -4 79 11 29 27 17 20 -15z m-796 12 c0 -6
-4 -13 -10 -16 -5 -3 -10 1 -10 9 0 9 5 16 10 16 6 0 10 -4 10 -9z m-1230 -16
c-7 -8 -18 -15 -24 -15 -6 0 -2 7 8 15 25 19 32 19 16 0z m1885 5 c3 -5 1 -10
-4 -10 -6 0 -11 5 -11 10 0 6 2 10 4 10 3 0 8 -4 11 -10z m-2065 -20 c0 -5 -4
-10 -10 -10 -5 0 -10 5 -10 10 0 6 5 10 10 10 6 0 10 -4 10 -10z m348 -15 c-6
-14 -15 -25 -19 -25 -4 0 -2 11 4 25 7 14 15 25 19 25 4 0 2 -11 -4 -25z
m1006 10 c3 -8 1 -15 -4 -15 -6 0 -10 7 -10 15 0 8 2 15 4 15 2 0 6 -7 10 -15z
m-1174 -28 c-14 -13 -31 -24 -38 -24 -15 0 37 46 53 47 5 0 -2 -10 -15 -23z
m1323 -7 c3 -11 1 -20 -4 -20 -5 0 -9 2 -9 4 0 2 -3 11 -6 20 -3 9 -2 16 4 16
5 0 12 -9 15 -20z m-1283 -14 c0 -2 -7 -7 -16 -10 -8 -3 -12 -2 -9 4 6 10 25
14 25 6z m1128 -106 l0 -45 -9 40 c-4 22 -8 56 -7 75 l0 35 8 -30 c4 -16 8
-50 8 -75z m-34 12 c-7 -79 -14 -78 -14 2 0 41 4 65 10 61 5 -3 7 -30 4 -63z
m-1294 19 c-18 -36 -40 -61 -40 -46 0 12 45 85 53 85 4 0 -2 -18 -13 -39z
m120 34 c0 -2 -10 -10 -22 -16 -21 -11 -22 -11 -9 4 13 16 31 23 31 12z m1259
-67 c-1 -57 -2 -60 -10 -28 -8 32 -3 90 7 90 2 0 4 -28 3 -62z m-1269 7 c-59
-59 -134 -115 -154 -115 -9 0 -16 -7 -16 -16 0 -11 6 -14 23 -8 25 7 107 65
127 89 19 22 55 42 44 23 -5 -7 -9 -19 -11 -27 -1 -8 -7 -17 -14 -21 -6 -4 -9
-12 -6 -17 6 -9 -35 -75 -119 -197 -12 -17 -50 -63 -85 -102 -35 -39 -77 -87
-93 -107 -37 -49 -49 -47 -30 5 8 23 31 98 50 167 20 69 43 135 51 147 8 13
17 38 20 56 7 45 27 65 73 73 21 3 48 17 61 31 12 13 30 24 38 24 9 0 30 9 46
20 45 30 44 24 -5 -25z m-171 -4 c-8 -17 -17 -31 -21 -31 -4 0 0 15 10 34 21
42 29 39 11 -3z m1505 -59 c4 -29 9 -60 12 -70 5 -14 4 -15 -5 -2 -6 8 -11 25
-11 36 0 12 -6 27 -14 33 -13 11 -19 58 -8 75 8 14 19 -15 26 -72z m690 -2
c-36 -49 -44 -58 -44 -42 0 18 61 103 70 97 5 -3 -7 -28 -26 -55z m-24 40 c0
-5 -5 -10 -11 -10 -5 0 -7 5 -4 10 3 6 8 10 11 10 2 0 4 -4 4 -10z m-630 -46
c0 -8 -4 -14 -10 -14 -5 0 -10 9 -10 21 0 11 5 17 10 14 6 -3 10 -13 10 -21z
m-166 -60 c3 -23 0 -47 -5 -55 -6 -9 -9 1 -9 33 0 25 -3 55 -6 65 -5 13 -4 15
5 7 6 -6 13 -28 15 -50z m-41 -264 c3 -145 2 -258 -3 -250 -4 8 -9 76 -11 150
-3 147 1 391 6 375 2 -5 6 -129 8 -275z m87 271 c0 -6 -4 -13 -10 -16 -5 -3
-10 1 -10 9 0 9 5 16 10 16 6 0 10 -4 10 -9z m27 -23 c-3 -7 -5 -2 -5 12 0 14
2 19 5 13 2 -7 2 -19 0 -25z m729 -7 c-9 -10 -16 -27 -16 -39 0 -11 -4 -24
-10 -27 -6 -4 -10 6 -10 23 0 31 41 94 48 73 2 -7 -3 -20 -12 -30z m-629 -3
c-3 -8 -6 -5 -6 6 -1 11 2 17 5 13 3 -3 4 -12 1 -19z m573 -2 c0 -11 -19 -15
-25 -6 -3 5 1 10 9 10 9 0 16 -2 16 -4z m-53 -33 c-9 -9 -19 -14 -22 -11 -3 3
2 13 11 22 9 9 19 14 22 11 3 -3 -2 -13 -11 -22z m-209 6 c-3 -13 50 -31 70
-24 21 8 51 -13 49 -35 -1 -15 -4 -17 -17 -7 -8 6 -12 8 -9 4 4 -5 -1 -25 -11
-45 -10 -20 -16 -41 -12 -46 3 -5 12 5 21 22 8 18 18 32 23 32 13 0 10 -10
-18 -57 -14 -25 -23 -51 -19 -60 3 -9 6 -68 6 -132 -1 -86 -6 -134 -21 -186
-14 -51 -20 -99 -20 -177 0 -86 -3 -108 -14 -108 -17 0 -23 -16 -32 -80 -4
-27 -10 -47 -15 -45 -4 3 -11 0 -15 -6 -4 -8 -3 -9 4 -5 17 10 15 -6 -6 -52
-17 -38 -19 -39 -30 -21 -10 16 -9 29 3 67 16 45 16 48 -3 60 -17 11 -18 19
-10 69 5 30 7 58 4 60 -10 10 -26 -9 -26 -31 0 -12 -6 -31 -14 -41 -11 -16
-12 -10 -4 45 8 48 7 69 -3 88 -10 18 -14 80 -13 246 0 245 1 256 21 256 8 0
11 5 7 12 -4 6 -8 28 -9 47 -1 20 -9 50 -18 68 -10 18 -17 39 -17 47 0 19 41
30 81 22 25 -5 30 -3 25 9 -4 11 2 15 19 15 14 0 24 -5 23 -11z m236 -51 c-8
-29 -14 -59 -14 -68 0 -8 -11 -20 -23 -26 l-23 -10 18 35 c10 20 23 55 28 79
6 23 14 42 19 42 4 0 2 -23 -5 -52z m-409 33 c3 -5 1 -12 -4 -15 -5 -3 -11 1
-15 9 -6 16 9 21 19 6z m-288 -48 c-3 -10 -5 -2 -5 17 0 19 2 27 5 18 2 -10 2
-26 0 -35z m-137 -33 l-7 -55 -2 65 c0 36 3 60 8 55 4 -6 5 -35 1 -65z m103
-78 c3 -73 1 -132 -3 -132 -3 0 -8 62 -9 137 -1 76 0 135 3 132 3 -3 7 -64 9
-137z m117 63 c0 -36 -3 -46 -10 -35 -5 8 -10 38 -10 65 0 36 3 46 10 35 5 -8
10 -37 10 -65z m632 33 c-6 -6 -7 0 -4 19 5 21 7 23 10 9 2 -10 0 -22 -6 -28z
m68 20 c-1 -7 -7 -24 -15 -38 -15 -26 -19 -12 -9 28 7 23 24 31 24 10z m-888
-100 c2 -37 0 -64 -4 -62 -4 3 -7 40 -7 82 1 87 6 79 11 -20z m235 30 c-3 -8
-6 -5 -6 6 -1 11 2 17 5 13 3 -3 4 -12 1 -19z m63 3 c0 -5 -6 -14 -14 -20 -12
-10 -13 -8 -9 8 5 21 23 30 23 12z m525 -73 c-5 -90 1 -142 16 -132 5 3 9 -17
9 -45 0 -27 4 -60 9 -74 12 -30 -28 -213 -59 -277 -4 -8 -13 -28 -19 -44 -21
-52 -22 -20 -2 35 21 56 39 130 47 189 3 19 6 42 7 50 1 8 -2 17 -8 20 -6 3
-15 -27 -22 -70 -6 -41 -25 -115 -41 -165 -25 -74 -30 -84 -31 -55 0 19 6 57
14 83 11 37 13 86 10 215 -3 92 -9 183 -13 202 -11 43 15 120 28 85 6 -18 9
-17 29 15 11 19 21 38 21 43 0 4 2 7 5 7 2 0 2 -37 0 -82z m-561 -28 c5 -34 4
-41 -5 -30 -8 12 -10 9 -6 -12 2 -16 0 -28 -4 -28 -5 0 -9 35 -8 78 0 80 10
77 23 -8z m594 -2 c-12 -102 -16 -106 -17 -12 -1 44 2 84 5 87 16 16 20 -7 12
-75z m-751 25 c-3 -10 -5 -4 -5 12 0 17 2 24 5 18 2 -7 2 -21 0 -30z m113 11
c0 -8 -4 -12 -10 -9 -5 3 -10 13 -10 21 0 8 5 12 10 9 6 -3 10 -13 10 -21z
m83 -24 c-3 -10 0 -29 7 -41 11 -23 11 -23 -5 -4 -9 11 -14 30 -12 43 2 12 0
22 -5 22 -5 0 -6 5 -2 11 9 16 23 -8 17 -31z m-156 8 c-3 -8 -6 -5 -6 6 -1 11
2 17 5 13 3 -3 4 -12 1 -19z m30 -30 c-2 -13 -4 -5 -4 17 -1 22 1 32 4 23 2
-10 2 -28 0 -40z m733 -14 c0 -14 -4 -22 -10 -19 -5 3 -10 17 -10 31 0 14 4
22 10 19 6 -3 10 -17 10 -31z m-691 -6 c0 -28 -2 -30 -9 -13 -12 28 -12 45 0
45 6 0 10 -15 9 -32z m-102 -20 c-3 -8 -6 -5 -6 6 -1 11 2 17 5 13 3 -3 4 -12
1 -19z m760 -10 c-3 -7 -5 -2 -5 12 0 14 2 19 5 13 2 -7 2 -19 0 -25z m-574
-108 c-1 -46 -7 -101 -14 -122 -9 -27 -9 -53 -2 -98 7 -44 7 -58 -1 -50 -13
13 -15 139 -3 188 4 19 4 31 -1 28 -8 -5 -8 14 1 107 2 16 0 30 -4 33 -10 5
-20 -26 -29 -91 -7 -44 -8 -46 -9 -14 0 20 6 59 15 87 15 46 18 48 33 33 13
-13 16 -34 14 -101z m620 62 c-3 -12 -9 -22 -14 -22 -11 0 -12 31 -3 55 10 25
25 -5 17 -33z m-799 6 c3 -16 3 -28 -2 -28 -4 0 -9 14 -10 32 -3 37 2 35 12
-4z m63 0 c-3 -8 -6 -5 -6 6 -1 11 2 17 5 13 3 -3 4 -12 1 -19z m30 -15 c-3
-10 -5 -4 -5 12 0 17 2 24 5 18 2 -7 2 -21 0 -30z m-2970 -25 c-3 -8 -6 -5 -6
6 -1 11 2 17 5 13 3 -3 4 -12 1 -19z m2827 7 c3 -8 1 -15 -4 -15 -6 0 -10 7
-10 15 0 8 2 15 4 15 2 0 6 -7 10 -15z m113 -17 c-3 -7 -5 -2 -5 12 0 14 2 19
5 13 2 -7 2 -19 0 -25z m-60 -30 c-3 -7 -5 -2 -5 12 0 14 2 19 5 13 2 -7 2
-19 0 -25z m-44 -20 c-4 -19 -2 -29 4 -25 6 4 10 -15 10 -46 0 -47 0 -48 -4
-9 -2 23 -8 40 -14 37 -5 -4 -9 12 -9 34 0 23 4 41 10 41 5 0 7 -13 3 -32z
m122 -44 c2 -21 2 -30 -1 -19 -3 11 -10 33 -15 50 -7 21 -6 26 1 19 6 -6 13
-28 15 -50z m-38 4 c-3 -7 -5 -2 -5 12 0 14 2 19 5 13 2 -7 2 -19 0 -25z
m-710 0 c-3 -8 -6 -5 -6 6 -1 11 2 17 5 13 3 -3 4 -12 1 -19z m736 -148 l6
-35 -14 30 c-7 17 -15 55 -18 85 l-6 55 13 -50 c7 -27 15 -66 19 -85z m-55 74
c-3 -27 -4 -26 -9 8 -3 22 -1 34 4 29 5 -5 7 -21 5 -37z m-2831 14 c-3 -8 -6
-5 -6 6 -1 11 2 17 5 13 3 -3 4 -12 1 -19z m2940 -15 c-3 -10 -5 -4 -5 12 0
17 2 24 5 18 2 -7 2 -21 0 -30z m-29 -18 c-3 -3 -9 2 -12 12 -6 14 -5 15 5 6
7 -7 10 -15 7 -18z m-943 5 c-3 -5 -11 -10 -16 -10 -6 0 -7 5 -4 10 3 6 11 10
16 10 6 0 7 -4 4 -10z m-1915 -48 c0 -15 -2 -15 -10 -2 -13 20 -13 33 0 25 6
-3 10 -14 10 -23z m-33 -4 c-3 -8 -6 -5 -6 6 -1 11 2 17 5 13 3 -3 4 -12 1
-19z m2765 -18 c18 -16 19 -22 8 -35 -9 -11 -10 -19 -3 -23 5 -4 13 -20 17
-37 10 -38 3 -31 -29 29 -23 43 -33 86 -20 86 3 0 15 -9 27 -20z m72 -30 c7
-24 6 -24 -8 -6 -9 11 -16 27 -16 35 0 21 16 2 24 -29z m-2815 -20 c0 -9 -4
-8 -9 5 -5 11 -9 27 -9 35 0 9 4 8 9 -5 5 -11 9 -27 9 -35z m18 18 c-3 -8 -6
-5 -6 6 -1 11 2 17 5 13 3 -3 4 -12 1 -19z m30 -10 c-3 -8 -6 -5 -6 6 -1 11 2
17 5 13 3 -3 4 -12 1 -19z m1581 -15 c-8 -10 -20 -27 -26 -38 -9 -15 -11 -16
-12 -4 0 8 9 25 20 37 25 26 40 30 18 5z m-1589 -33 c0 -10 -3 -8 -9 5 -12 27
-12 43 0 25 5 -8 9 -22 9 -30z m1703 15 c-11 -9 -28 -23 -37 -31 -25 -25 -27
-11 -2 17 22 25 48 40 56 32 3 -2 -5 -10 -17 -18z m1155 -22 c-3 -10 -5 -2 -5
17 0 19 2 27 5 18 2 -10 2 -26 0 -35z m-622 17 c3 -5 1 -10 -4 -10 -16 0 -13
-26 4 -40 23 -19 18 -30 -7 -17 -27 12 -38 77 -14 77 8 0 18 -4 21 -10z
m-2197 -75 l1 -20 -9 20 c-5 11 -8 31 -8 45 l0 25 8 -25 c4 -14 8 -34 8 -45z
m-31 13 c-3 -8 -6 -5 -6 6 -1 11 2 17 5 13 3 -3 4 -12 1 -19z m2762 -2 c7 -8
8 -17 3 -20 -6 -3 -12 3 -15 14 -6 24 -4 25 12 6z m101 -17 c0 -5 -4 -9 -10
-9 -5 0 -10 7 -10 16 0 8 5 12 10 9 6 -3 10 -10 10 -16z m-2786 -118 l5 -56
-13 50 c-8 28 -14 66 -14 85 0 35 0 35 8 6 5 -15 11 -53 14 -85z m2623 57 c-3
-7 -5 -2 -5 12 0 14 2 19 5 13 2 -7 2 -19 0 -25z m-409 -9 c-3 -8 -7 -3 -11
10 -4 17 -3 21 5 13 5 -5 8 -16 6 -23z m62 -12 c0 -5 -7 -2 -15 7 -8 8 -15 20
-15 27 0 14 29 -20 30 -34z m89 17 c2 -2 -9 -6 -24 -10 -18 -4 -32 -2 -43 9
-14 15 -12 16 24 10 21 -3 41 -7 43 -9z m51 6 c0 -5 -4 -10 -10 -10 -5 0 -10
5 -10 10 0 6 5 10 10 10 6 0 10 -4 10 -10z m-277 -96 c4 -4 7 -17 7 -28 -1
-19 -2 -19 -14 4 -8 14 -16 41 -20 60 l-6 35 13 -32 c6 -17 15 -35 20 -39z
m521 11 c-4 -8 -11 -15 -16 -15 -6 0 -8 6 -5 14 9 22 -5 28 -25 9 -10 -9 -18
-13 -18 -8 0 4 12 19 27 33 27 24 27 24 35 3 4 -11 5 -28 2 -36z m51 6 c-5
-29 -10 -38 -21 -34 -9 3 -11 10 -6 17 5 6 12 24 16 40 10 42 19 24 11 -23z
m-500 -18 c-9 -15 -13 -19 -10 -8 4 11 10 29 13 40 3 11 7 14 9 8 3 -7 -3 -24
-12 -40z m232 21 c-3 -3 -12 -4 -19 -1 -8 3 -5 6 6 6 11 1 17 -2 13 -5z m-497
-14 c0 -5 -2 -10 -4 -10 -3 0 -8 5 -11 10 -3 6 -1 10 4 10 6 0 11 -4 11 -10z
m861 -135 l-11 -40 5 40 c3 22 6 60 7 85 l2 45 3 -45 c2 -25 -1 -63 -6 -85z
m-805 95 c13 0 25 -4 29 -10 3 -5 12 -7 20 -4 7 3 18 -4 25 -15 13 -26 9 -26
-32 -2 -31 20 -48 19 -48 0 0 -6 4 -8 9 -4 5 3 12 1 15 -4 4 -5 -2 -12 -11
-14 -11 -3 -7 -5 10 -6 16 0 35 -8 43 -16 23 -22 34 -18 35 13 l1 27 7 -25 c4
-14 3 -28 -2 -31 -15 -10 -22 -159 -8 -159 7 0 11 21 12 53 0 28 4 61 8 71 7
19 8 19 16 0 4 -10 7 -22 7 -26 -1 -5 3 -8 9 -8 5 0 7 -5 4 -10 -4 -6 -11 -7
-17 -4 -7 5 -8 2 -2 -7 5 -8 9 -29 10 -47 1 -27 -2 -32 -15 -28 -9 4 -6 -2 8
-14 14 -12 18 -20 10 -20 -9 0 -7 -4 4 -11 10 -6 21 -8 24 -5 3 3 14 -4 24
-15 20 -23 42 -18 32 8 -4 10 -2 14 4 10 6 -4 14 0 17 9 4 11 2 15 -7 11 -8
-3 -14 1 -14 9 0 8 4 14 9 14 5 0 8 15 7 34 -3 27 4 40 36 72 22 22 30 28 18
14 -43 -49 -20 -55 37 -10 21 17 44 30 51 30 8 0 25 9 39 20 14 11 31 20 39
20 8 0 -4 -14 -25 -30 -82 -64 -93 -74 -88 -82 3 -4 11 -2 18 5 8 6 12 15 9
20 -2 4 3 7 11 7 9 0 16 5 16 11 0 5 4 8 9 5 14 -9 41 4 41 20 0 8 5 14 10 14
6 0 10 -29 10 -68 0 -55 -4 -74 -25 -104 -16 -23 -21 -38 -13 -40 6 -2 -3 -10
-21 -18 -28 -11 -34 -11 -42 1 -6 11 -11 11 -21 1 -6 -6 -22 -12 -34 -12 -13
0 -26 -5 -29 -11 -4 -6 -19 -7 -35 -4 -19 4 -43 -1 -70 -14 -47 -22 -92 -19
-125 8 -30 25 -116 68 -150 75 l-30 7 5 62 c6 64 36 157 54 169 21 13 51 39
37 32 -9 -5 -12 -3 -7 5 4 6 2 20 -5 29 -11 14 -11 15 1 5 8 -7 24 -13 36 -13z
m258 -33 c14 -30 26 -60 26 -68 -1 -8 -11 9 -23 38 -13 29 -26 55 -30 59 -7 8
-10 24 -3 24 2 0 15 -24 30 -53z m130 38 c-4 -8 -11 -12 -16 -9 -6 4 -5 10 3
15 19 12 19 11 13 -6z m-58 -82 c-8 -8 -46 59 -40 69 3 5 15 -7 26 -27 10 -21
17 -39 14 -42z m-1081 31 c26 -28 32 -44 16 -44 -5 0 -11 9 -14 20 -7 27 -27
26 -27 -2 0 -29 -6 -20 -13 20 -8 39 5 41 38 6z m978 -26 c16 -50 14 -67 -3
-23 -13 34 -24 81 -18 75 3 -3 12 -26 21 -52z m442 43 c17 -7 17 -8 -8 -13
-19 -4 -27 -1 -27 8 0 15 6 16 35 5z m-1535 -30 c-6 -12 -18 -21 -28 -22 -10
0 -12 -3 -4 -6 15 -6 16 -39 1 -49 -8 -4 -9 0 -4 15 8 26 -3 27 -22 4 -12 -16
-13 -15 -2 7 13 25 62 80 67 75 2 -2 -1 -13 -8 -24z m1571 -4 c-8 -8 -11 -7
-11 4 0 20 13 34 18 19 3 -7 -1 -17 -7 -23z m-548 -29 c9 -21 13 -38 8 -38 -7
0 -31 58 -31 75 0 13 7 3 23 -37z m223 13 c-4 -6 -15 -10 -24 -10 -16 1 -16 2
0 6 11 3 15 10 11 21 -5 13 -3 14 7 5 7 -6 9 -16 6 -22z m44 19 c0 -5 -7 -10
-16 -10 -8 0 -12 5 -9 10 3 6 10 10 16 10 5 0 9 -4 9 -10z m193 3 c-7 -2 -19
-2 -25 0 -7 3 -2 5 12 5 14 0 19 -2 13 -5z m-1558 -19 c-11 -8 -20 -19 -20
-24 0 -4 -3 -11 -6 -14 -3 -3 -6 2 -6 12 0 17 24 41 42 41 6 0 1 -6 -10 -15z
m1682 -21 c-3 -10 -5 -4 -5 12 0 17 2 24 5 18 2 -7 2 -21 0 -30z m-1557 23 c0
-2 -7 -7 -16 -10 -8 -3 -12 -2 -9 4 6 10 25 14 25 6z m1509 -33 c0 16 5 25 11
22 6 -3 9 -69 7 -161 -1 -109 -5 -150 -12 -139 -27 46 -43 58 -81 60 -50 3
-49 2 -35 19 7 8 15 39 17 68 8 85 12 98 34 98 11 0 20 5 20 11 0 5 5 7 10 4
6 -4 11 6 11 22 l1 28 8 -30 8 -30 1 28z m-1346 4 c4 3 7 2 7 -4 0 -6 -7 -13
-15 -17 -8 -3 -15 -4 -15 -2 0 3 -3 13 -7 23 -6 15 -4 16 9 6 8 -7 18 -10 21
-6z m-157 -23 c-4 -15 -3 -23 2 -20 6 3 12 -4 15 -16 8 -27 1 -36 -15 -20 -7
7 -25 12 -40 12 -20 0 -28 5 -28 18 0 14 2 15 10 2 9 -13 13 -11 30 10 11 14
20 28 20 33 0 4 3 7 6 7 3 0 3 -12 0 -26z m41 4 c-3 -8 -6 -5 -6 6 -1 11 2 17
5 13 3 -3 4 -12 1 -19z m991 -14 c-4 -3 -12 5 -18 18 -12 22 -12 22 6 6 10
-10 15 -20 12 -24z m-1193 4 c12 -9 -35 -27 -53 -21 -10 4 -10 9 -1 19 9 11
15 12 26 3 11 -10 12 -8 7 7 -5 12 -4 15 2 9 5 -5 13 -13 19 -17z m-980 -86
c-5 -5 -25 69 -24 88 0 8 7 -7 14 -35 8 -27 12 -51 10 -53z m894 81 c-7 -10
-13 -19 -14 -20 0 -1 -14 -4 -30 -8 l-30 -7 35 25 c41 30 58 34 39 10z m476 5
c30 -14 34 -32 4 -23 -19 6 -20 5 -9 -15 7 -12 7 -20 2 -16 -10 6 -34 66 -27
66 2 0 16 -5 30 -12z m-1295 -187 c0 -29 -12 -1 -25 56 -8 32 -14 74 -14 93 1
24 7 8 20 -50 10 -47 18 -91 19 -99z m1130 146 c0 -5 -4 -5 -10 -2 -5 3 -10
14 -10 23 0 15 2 15 10 2 5 -8 10 -19 10 -23z m39 -17 c0 -9 -4 -8 -9 5 -5 11
-9 27 -9 35 0 9 4 8 9 -5 5 -11 9 -27 9 -35z m68 44 c-3 -4 5 -28 18 -55 14
-27 25 -52 25 -56 -1 -9 -59 98 -60 110 0 4 5 7 12 7 6 0 9 -3 5 -6z m1379
-143 c-1 -82 -4 -147 -8 -144 -11 6 -10 293 0 293 4 0 8 -67 8 -149z m-546
129 c8 -5 11 -10 5 -10 -5 0 -17 5 -25 10 -8 5 -10 10 -5 10 6 0 17 -5 25 -10z
m594 -124 c-4 -87 -3 -125 5 -130 7 -5 9 -1 4 11 -4 13 -3 15 6 7 9 -8 7 -20
-6 -50 l-18 -39 -3 60 c-4 67 7 265 15 265 2 0 1 -56 -3 -124z m-1269 59 c2
-42 -9 -27 -19 25 -5 26 -4 32 5 23 6 -6 13 -28 14 -48z m-645 35 c0 -5 -5
-10 -11 -10 -5 0 -7 5 -4 10 3 6 8 10 11 10 2 0 4 -4 4 -10z m285 -64 c39 -27
71 -50 73 -51 1 -1 -9 -22 -23 -46 -13 -24 -25 -56 -25 -71 0 -30 -31 -68 -55
-68 -11 0 -14 -7 -9 -24 5 -20 1 -24 -23 -29 -15 -3 -41 -2 -58 3 -147 44
-164 48 -190 34 -14 -7 -25 -12 -26 -11 0 1 -2 13 -4 27 -1 14 -12 60 -24 104
-11 43 -18 82 -16 87 3 4 28 20 55 35 27 15 52 35 55 44 5 15 19 17 103 16
l97 -1 70 -49z m465 44 c0 -14 -39 -18 -44 -5 -3 8 4 13 20 13 13 0 24 -4 24
-8z m-837 -16 c3 -4 -15 -24 -41 -44 -26 -21 -49 -36 -51 -34 -7 7 42 54 56
54 7 0 12 3 12 8 -4 21 10 30 24 16z m578 -26 l22 -33 -27 27 c-24 25 -32 38
-22 38 3 0 15 -15 27 -32z m306 24 c18 -11 34 -95 21 -107 -7 -7 -9 -6 -5 1 8
14 -11 84 -22 84 -5 0 -11 7 -15 15 -6 16 2 19 21 7z m-458 -19 c28 -16 41
-33 25 -33 -9 0 -74 41 -74 46 0 9 20 3 49 -13z m265 1 c3 -8 2 -12 -4 -9 -6
3 -10 10 -10 16 0 14 7 11 14 -7z m-1279 -70 c7 -85 14 -111 25 -94 5 7 8 -1
7 -21 0 -19 3 -46 8 -61 4 -18 3 -28 -3 -28 -6 0 -14 21 -18 48 -3 26 -10 52
-14 57 -10 12 -25 183 -17 174 4 -3 9 -36 12 -75z m1535 45 c0 -6 -4 -7 -10
-4 -5 3 -10 11 -10 16 0 6 5 7 10 4 6 -3 10 -11 10 -16z m-1474 -18 c15 -16
62 -21 68 -8 2 7 5 4 5 -5 1 -9 -5 -23 -12 -30 -11 -11 -29 -46 -51 -98 -3 -8
-4 8 -1 36 5 46 3 52 -15 57 -21 5 -38 -9 -18 -15 7 -3 8 -10 3 -17 -13 -22
-28 14 -15 38 5 11 7 27 4 35 -7 18 16 22 32 7z m1044 -6 c0 -8 7 -15 15 -15
8 0 35 -16 61 -35 25 -19 51 -35 59 -35 7 0 19 -7 26 -17 13 -15 10 -16 -28
-11 -65 9 -203 128 -148 128 8 0 15 -7 15 -15z m187 -15 c6 0 13 -7 17 -15 5
-14 2 -14 -23 0 -16 8 -32 22 -35 32 -6 16 -6 16 12 0 10 -9 23 -17 29 -17z
m1532 8 c-1 -18 -2 -19 -6 -5 -2 9 -9 14 -15 11 -7 -4 -8 -2 -4 4 12 20 26 13
25 -10z m-1249 -13 c0 -8 -4 -17 -10 -20 -6 -4 -10 5 -10 20 0 15 4 24 10 20
6 -3 10 -12 10 -20z m-1005 -32 c4 -21 12 -61 19 -89 l12 -51 -43 -37 c-54
-47 -86 -54 -107 -24 -15 22 -12 43 5 33 5 -4 9 -2 9 4 0 5 -4 13 -10 16 -5 3
-10 15 -10 26 0 12 -7 19 -20 19 -11 0 -20 5 -20 12 0 18 88 98 94 85 2 -7 5
-4 5 6 1 9 7 17 15 17 15 0 36 -76 36 -130 0 -17 5 -30 10 -30 13 0 12 22 -5
105 -18 83 -17 75 -5 75 5 0 12 -17 15 -37z m550 -19 c59 -54 100 -78 126 -71
11 3 19 1 19 -5 0 -7 -77 -175 -86 -186 -1 -2 -27 12 -57 32 -30 20 -59 36
-64 36 -6 0 -24 14 -42 31 -35 33 -35 46 0 107 10 18 19 43 19 56 0 20 16 46
30 46 3 0 28 -21 55 -46z m258 22 c3 3 11 -4 17 -16 11 -21 11 -21 -19 -5 -17
8 -31 20 -31 26 0 8 4 8 13 0 8 -6 16 -8 20 -5z m97 -62 c0 -12 -33 13 -40 30
-15 41 3 49 22 10 10 -20 18 -39 18 -40z m260 69 c0 -5 11 -9 24 -9 29 -2 105
-54 106 -71 0 -20 -16 -15 -33 10 l-16 22 6 -25 c4 -20 2 -22 -6 -10 -6 8 -11
22 -11 30 0 18 -51 44 -60 30 -3 -5 -11 0 -18 10 -7 12 -8 20 -2 20 5 0 10 -3
10 -7z m696 -15 c4 -6 3 -8 -3 -5 -6 4 -16 1 -22 -7 -7 -8 -21 -12 -32 -9 -14
4 -32 -8 -67 -44 -26 -27 -55 -55 -65 -63 -15 -11 -17 -11 -11 3 3 9 13 19 22
22 10 3 29 25 44 49 23 36 34 44 75 53 26 6 49 11 50 12 1 0 5 -4 9 -11z
m-900 -65 c-5 -6 -46 38 -46 49 0 5 5 6 10 3 6 -3 10 0 10 7 1 7 7 -2 16 -21
8 -19 12 -36 10 -38z m70 42 c8 -20 -4 -65 -16 -65 -14 0 -32 50 -26 67 7 18
35 17 42 -2z m608 -5 c-6 -6 -24 -14 -42 -19 -24 -7 -30 -6 -26 4 3 8 18 16
32 18 15 2 31 5 37 6 5 0 5 -3 -1 -9z m576 -20 c-6 -12 -14 -19 -17 -17 -2 3
1 15 7 27 6 12 14 19 17 17 2 -3 -1 -15 -7 -27z m-2810 -17 c0 -7 -4 -13 -10
-13 -5 0 -10 12 -10 28 0 21 2 24 10 12 5 -8 10 -21 10 -27z m1735 7 c-3 -10
0 -22 6 -26 8 -5 10 -2 5 7 -4 8 0 5 8 -5 18 -22 21 -40 6 -31 -5 3 -10 1 -10
-4 0 -6 6 -11 14 -11 8 0 18 -4 21 -10 15 -24 -26 -7 -42 17 -18 27 -27 96
-11 87 5 -3 6 -14 3 -24z m393 10 c-12 -19 -28 -27 -28 -14 0 6 30 33 38 34 1
0 -3 -9 -10 -20z m162 16 c0 -2 -12 -11 -27 -20 l-28 -17 24 20 c23 21 31 25
31 17z m195 -14 c-11 -2 -27 -9 -35 -16 -9 -6 -5 -1 8 12 13 13 29 19 35 15 8
-5 5 -9 -8 -11z m-1051 -72 c38 -18 81 -36 95 -39 27 -8 35 -26 46 -113 l7
-53 -21 40 c-12 21 -21 50 -21 62 0 13 -4 23 -10 23 -5 0 -7 -13 -4 -29 4 -16
1 -32 -5 -35 -16 -11 -13 -29 4 -22 8 3 19 -2 24 -12 8 -16 0 -17 -98 -17
-102 0 -151 8 -151 24 0 4 7 52 15 107 8 54 15 105 15 113 0 12 3 11 18 -1 9
-9 48 -30 86 -48z m652 40 c0 -12 -4 -16 -9 -11 -5 5 -6 14 -3 20 10 15 12 14
12 -9z m-276 -14 c0 -7 9 -25 20 -39 24 -30 25 -38 6 -31 -15 6 -22 19 -36 67
-5 17 -5 25 1 22 5 -4 9 -12 9 -19z m150 8 c0 -2 -9 -4 -20 -4 -11 0 -20 4
-20 9 0 5 9 7 20 4 11 -3 20 -7 20 -9z m70 6 c0 -5 -8 -10 -17 -10 -15 0 -16
2 -3 10 19 12 20 12 20 0z m110 -20 c-6 -11 -13 -20 -16 -20 -2 0 0 9 6 20 6
11 13 20 16 20 2 0 0 -9 -6 -20z m87 -7 c-15 -16 -17 -16 -17 -1 0 9 6 18 13
21 20 7 22 -2 4 -20z m-522 -3 c3 -5 2 -10 -4 -10 -5 0 -13 5 -16 10 -3 6 -2
10 4 10 5 0 13 -4 16 -10z m235 -32 c0 -28 -3 -39 -10 -32 -9 9 -3 74 6 74 2
0 4 -19 4 -42z m112 20 c-7 -7 -12 -8 -12 -2 0 14 12 26 19 19 2 -3 -1 -11 -7
-17z m147 -16 c-7 -3 -17 -10 -21 -16 -4 -6 -10 -7 -13 -4 -11 11 19 36 34 30
13 -5 13 -6 0 -10z m432 -18 c-5 -16 -10 -21 -10 -12 -1 18 10 51 15 45 2 -1
-1 -16 -5 -33z m-131 11 c-7 -9 -15 -13 -17 -11 -7 7 7 26 19 26 6 0 6 -6 -2
-15z m33 -9 c-10 -13 -19 -23 -21 -21 -5 5 22 45 31 45 4 0 0 -11 -10 -24z
m-2103 4 c0 -5 -4 -10 -10 -10 -5 0 -10 5 -10 10 0 6 5 10 10 10 6 0 10 -4 10
-10z m1474 -21 c-10 -16 -24 -9 -24 12 0 18 2 19 15 9 8 -7 12 -16 9 -21z m81
-17 c-11 -11 -27 17 -20 35 6 16 8 16 16 -6 5 -13 7 -26 4 -29z m137 26 c-7
-7 -12 -8 -12 -2 0 14 12 26 19 19 2 -3 -1 -11 -7 -17z m-87 -7 c3 -5 1 -12
-5 -16 -5 -3 -10 1 -10 9 0 18 6 21 15 7z m-415 -18 c19 -9 52 -20 74 -25 167
-37 154 -28 144 -101 -15 -114 -12 -110 -71 -102 -29 3 -75 13 -104 21 -52 14
-52 14 -58 62 -3 26 -10 66 -15 89 -10 43 -13 73 -7 73 2 0 19 -8 37 -17z
m932 5 c-8 -8 -9 -15 -1 -25 7 -8 8 -13 1 -13 -15 0 -22 26 -9 39 6 6 13 11
16 11 3 0 0 -5 -7 -12z m-1552 -2 c0 -3 -4 -8 -10 -11 -5 -3 -10 -1 -10 4 0 6
5 11 10 11 6 0 10 -2 10 -4z m286 -33 c-11 -11 -17 4 -9 23 7 18 8 18 11 1 2
-10 1 -21 -2 -24z m1130 17 c24 0 34 -5 34 -15 0 -8 5 -15 10 -15 18 0 11 -26
-14 -52 -12 -14 -26 -33 -29 -41 -3 -8 -32 -35 -65 -61 -79 -60 -117 -61 -147
-3 -8 16 -10 29 -4 32 5 4 9 15 9 25 0 10 11 31 24 47 13 15 31 43 40 62 17
32 19 33 63 27 25 -3 61 -6 79 -6z m-2050 -27 c-10 -10 -19 5 -10 18 6 11 8
11 12 0 2 -7 1 -15 -2 -18z m1853 -30 c-18 -27 -36 -50 -40 -53 -4 -3 -12 -17
-17 -30 -7 -17 -18 -26 -36 -28 -14 -1 -43 -9 -64 -18 -50 -22 -131 -44 -163
-44 -34 0 -45 28 -41 103 3 52 6 59 30 68 15 6 79 12 142 14 69 2 131 10 155
19 64 24 68 20 34 -31z m-1809 33 c0 -3 -4 -8 -10 -11 -5 -3 -10 -1 -10 4 0 6
5 11 10 11 6 0 10 -2 10 -4z m650 -26 c0 -5 -4 -10 -10 -10 -5 0 -10 5 -10 10
0 6 5 10 10 10 6 0 10 -4 10 -10z m-538 -21 c62 -16 78 -47 78 -152 0 -49 -5
-107 -12 -128 -11 -38 -12 -39 -30 -22 -31 28 -82 102 -123 178 -21 39 -43 77
-50 85 -7 8 -16 25 -19 37 -7 21 -5 22 56 17 35 -3 80 -9 100 -15z m2070 -41
c-7 -7 -12 -8 -12 -2 0 14 12 26 19 19 2 -3 -1 -11 -7 -17z m-2226 -66 c-8 -8
-12 -1 -20 33 l-6 30 16 -28 c8 -16 13 -31 10 -35z m1168 42 c36 -6 45 -17 26
-29 -6 -4 -22 0 -35 9 -13 9 -39 16 -57 17 -28 0 -30 2 -13 9 11 5 25 7 32 5
6 -2 28 -7 47 -11z m1030 -35 c-11 -18 -25 -34 -32 -37 -6 -2 0 15 15 37 31
48 44 47 17 0z m-164 -14 c-7 -9 -15 -13 -17 -11 -7 7 7 26 19 26 6 0 6 -6 -2
-15z m-2026 -21 c3 -8 2 -12 -4 -9 -6 3 -10 10 -10 16 0 14 7 11 14 -7z m1976
-18 c0 -3 -4 -8 -10 -11 -5 -3 -10 -1 -10 4 0 6 5 11 10 11 6 0 10 -2 10 -4z
m-1956 -22 c3 -8 2 -12 -4 -9 -6 3 -10 10 -10 16 0 14 7 11 14 -7z m470 -36
c14 -22 19 -43 31 -118 3 -19 10 -36 16 -38 5 -2 9 -11 9 -21 0 -9 4 -21 9
-26 5 -6 3 -36 -5 -70 -7 -33 -10 -77 -7 -97 7 -51 -8 -49 -66 5 -32 30 -59
46 -86 51 -73 12 -146 106 -144 187 0 38 5 48 35 73 38 32 137 75 171 76 13 0
29 -10 37 -22z m1958 -7 c-2 -17 -13 -38 -25 -48 -20 -18 -20 -18 -6 7 13 24
15 30 18 58 0 6 5 12 9 12 5 0 7 -13 4 -29z m-2301 -68 c13 -16 12 -17 -3 -4
-10 7 -18 15 -18 17 0 8 8 3 21 -13z m1849 2 c0 -10 -73 -85 -82 -85 -6 0 7
20 28 44 36 40 54 54 54 41z m-2266 -137 c4 -73 14 -164 22 -201 8 -38 19
-121 24 -185 6 -64 19 -152 30 -194 12 -45 17 -89 14 -108 -8 -38 -24 -50 -20
-13 3 29 -40 87 -59 79 -18 -6 -29 5 -49 49 -10 22 -29 49 -42 61 -19 17 -24
34 -29 95 -12 140 -4 309 16 375 25 81 66 174 77 174 5 0 12 -60 16 -132z
m2310 46 c-20 -44 -38 -74 -40 -68 -5 12 65 159 72 152 2 -3 -12 -41 -32 -84z
m108 24 c-8 -8 -9 -4 -5 13 4 13 8 18 11 10 2 -7 -1 -18 -6 -23z m-3083 -15
c13 -28 13 -28 -8 -9 -22 20 -27 36 -13 36 5 0 14 -12 21 -27z m1722 -72 c60
-61 119 -154 105 -168 -2 -3 -49 -1 -103 4 -68 7 -117 6 -160 -2 -61 -11 -63
-11 -63 9 0 12 5 28 10 36 8 12 10 10 11 -10 1 -24 1 -23 10 5 13 44 4 62 -21
40 -24 -22 -24 -23 -5 39 8 27 15 62 15 77 0 25 5 29 43 38 64 14 84 6 158
-68z m1192 62 c-9 -24 -44 -83 -49 -83 -6 0 25 71 37 87 16 18 20 16 12 -4z
m-2858 -52 c-6 -5 -25 10 -25 20 0 5 6 4 14 -3 8 -7 12 -15 11 -17z m3185 21
c0 -5 -13 -21 -30 -37 -35 -33 -42 -14 -8 22 22 23 38 30 38 15z m-1227 -29
c-7 -2 -21 -2 -30 0 -10 3 -4 5 12 5 17 0 24 -2 18 -5z m-1922 -20 c13 -16 12
-17 -3 -4 -10 7 -18 15 -18 17 0 8 8 3 21 -13z m2750 -10 c-12 -20 -14 -14 -5
12 4 9 9 14 11 11 3 -2 0 -13 -6 -23z m-776 -1 l110 -17 0 -69 c0 -100 26
-100 51 -1 4 15 2 25 -5 25 -6 0 -11 -9 -11 -19 0 -11 -5 -23 -11 -27 -9 -5
-10 4 -4 32 4 21 8 40 9 41 1 2 29 -8 62 -20 59 -23 59 -23 62 -68 5 -62 -7
-129 -22 -129 -7 0 -21 9 -31 20 -47 52 -211 100 -341 100 l-74 0 0 44 c0 24
3 58 6 75 6 29 9 31 48 30 22 0 91 -8 151 -17z m-956 -57 c0 -5 -4 -3 -9 5 -5
8 -9 22 -9 30 0 16 17 -16 18 -35z m131 10 c12 -14 8 -14 -22 2 -20 10 -34 21
-31 26 5 9 35 -7 53 -28z m1030 25 c0 -5 -4 -10 -9 -10 -6 0 -13 5 -16 10 -3
6 1 10 9 10 9 0 16 -4 16 -10z m100 -54 c0 -3 -4 -8 -10 -11 -5 -3 -10 -1 -10
4 0 6 5 11 10 11 6 0 10 -2 10 -4z m633 -13 c-18 -52 -106 -253 -110 -250 -2
2 17 53 43 113 25 60 50 119 55 132 10 26 21 30 12 5z m155 -11 c11 -32 0 -62
-23 -62 -19 0 -23 18 -11 57 13 40 21 42 34 5z m-1773 -32 c43 -43 46 -50 27
-50 -12 0 -22 4 -22 9 0 22 -53 71 -76 71 -14 0 -22 4 -19 10 13 21 43 8 90
-40z m1170 28 c5 -6 7 -54 6 -156 l-1 -104 -60 7 c-79 9 -175 67 -165 99 3 12
11 46 17 78 7 35 16 54 23 52 6 -3 20 5 31 17 17 19 26 21 83 15 35 -3 65 -7
66 -8z m320 -42 c-22 -52 -29 -40 -8 14 9 23 19 38 20 33 2 -5 -4 -26 -12 -47z
m-99 -5 c-18 -34 -21 -61 -6 -61 5 0 1 -23 -10 -50 -11 -28 -20 -60 -20 -70 0
-11 -4 -20 -10 -20 -14 0 -13 15 4 55 8 19 14 53 14 77 -1 43 31 134 39 111 2
-6 -3 -25 -11 -42z m-111 2 c-3 -9 -10 -44 -14 -79 -5 -35 -12 -68 -16 -74 -4
-6 -2 -17 4 -24 9 -11 5 -13 -21 -12 -33 2 -33 2 -34 56 -1 30 0 75 3 100 4
45 5 45 44 47 33 1 39 -2 34 -14z m139 -7 c-6 -16 -24 -23 -24 -8 0 10 22 33
27 28 2 -2 1 -11 -3 -20z m-1431 -47 c16 -31 31 -46 52 -53 17 -4 37 -12 45
-16 8 -4 24 -4 35 0 11 4 35 5 53 3 25 -4 32 -10 32 -29 0 -12 4 -25 9 -28 12
-8 20 -56 9 -56 -5 0 -11 7 -14 15 -4 8 -10 12 -15 9 -5 -3 -9 0 -9 5 0 13
-40 54 -46 48 -6 -6 17 -57 27 -57 4 0 -5 -14 -19 -30 l-27 -31 -12 28 c-6 15
-16 47 -23 71 -6 23 -15 40 -21 37 -6 -4 -5 -13 1 -25 12 -23 13 -53 1 -46 -5
3 -12 22 -15 41 -4 19 -12 35 -18 35 -6 0 -8 -10 -3 -27 6 -27 6 -27 -14 -9
-12 11 -21 29 -21 41 0 14 -8 25 -21 28 -17 5 -19 10 -13 41 4 24 2 42 -7 54
-8 10 -8 13 -1 6 7 -5 22 -30 35 -55z m1642 40 c-12 -37 -77 -170 -82 -166 -2
3 15 45 39 96 40 87 57 114 43 70z m-896 -15 c63 -18 63 -30 0 -14 -42 11 -71
16 -112 19 -10 0 -15 6 -12 12 7 11 36 7 124 -17z m-938 2 c-9 -11 -10 -20 -1
-35 6 -13 7 -21 1 -21 -16 0 -24 40 -11 55 7 8 15 15 17 15 3 0 0 -6 -6 -14z
m59 -21 c0 -5 -5 -3 -10 5 -5 8 -10 20 -10 25 0 6 5 3 10 -5 5 -8 10 -19 10
-25z m630 -11 c30 -3 66 -8 80 -11 14 -3 29 -5 33 -4 5 1 6 -3 2 -9 -3 -6 -10
-8 -14 -6 -4 3 -41 7 -82 10 -95 6 -145 16 -128 27 7 4 22 5 33 2 12 -3 46 -7
76 -9z m-307 -1 c-7 -2 -19 -2 -25 0 -7 3 -2 5 12 5 14 0 19 -2 13 -5z m-78
-13 c-3 -5 -22 -10 -41 -10 -19 0 -34 5 -34 10 0 6 18 10 41 10 24 0 38 -4 34
-10z m1416 -27 c-12 -20 -14 -14 -5 12 4 9 9 14 11 11 3 -2 0 -13 -6 -23z
m-1671 -13 c12 -16 18 -30 13 -30 -5 0 -17 14 -26 30 -10 17 -16 30 -13 30 2
0 14 -13 26 -30z m1603 10 c-3 -11 -7 -20 -9 -20 -2 0 -4 9 -4 20 0 11 4 20 9
20 5 0 7 -9 4 -20z m-2394 -43 c0 -27 -2 -29 -9 -12 -12 28 -12 57 0 50 6 -3
10 -21 9 -38z m884 -9 c10 -16 14 -28 9 -28 -8 0 -32 43 -32 57 0 7 1 6 23
-29z m683 11 c11 0 31 -9 44 -21 18 -17 26 -19 41 -10 12 8 19 8 19 2 0 -5 6
-10 14 -10 7 0 16 -10 20 -22 4 -18 8 -20 18 -10 33 33 79 3 66 -44 -11 -45
-41 -69 -67 -54 -12 6 -21 20 -21 30 0 15 -7 20 -28 20 -15 0 -38 7 -50 16
-12 8 -22 13 -22 10 0 -3 0 -9 1 -13 0 -5 -10 -11 -23 -15 -20 -5 -21 -6 -3
-7 11 -1 31 -10 45 -21 l25 -20 -32 10 c-18 6 -45 14 -60 18 -16 4 -58 8 -95
7 -56 0 -68 3 -72 17 -5 21 5 23 22 6 9 -9 12 -8 12 6 0 14 3 16 13 7 7 -6 29
-9 47 -6 19 2 40 -1 47 -7 9 -7 14 -6 19 6 9 24 -2 31 -28 19 -19 -8 -25 -6
-35 15 -26 49 -7 88 37 77 14 -3 34 -6 46 -6z m97 -6 c-7 -2 -19 -2 -25 0 -7
3 -2 5 12 5 14 0 19 -2 13 -5z m702 -38 c-8 -21 -18 -35 -21 -32 -3 3 2 22 11
42 23 47 31 38 10 -10z m-1007 26 c16 -10 13 -50 -6 -69 -20 -22 -42 -6 -42
31 0 46 16 59 48 38z m487 -25 c17 -12 43 -27 59 -34 16 -7 26 -15 23 -18 -3
-4 -2 -17 3 -30 7 -18 6 -22 -5 -17 -8 3 -15 11 -15 19 0 8 -18 25 -39 38 -22
14 -42 30 -46 36 -3 5 -15 10 -26 10 -10 0 -19 4 -19 9 0 5 -8 12 -17 14 -10
2 -2 2 17 0 19 -3 49 -15 65 -27z m-1889 -3 c2 -19 -1 -22 -12 -12 -17 14 -18
36 -1 36 6 0 13 -11 13 -24z m2298 -8 c7 -30 7 -30 -9 -7 -9 12 -13 27 -10 33
9 13 11 11 19 -26z m-1396 -60 c-3 -3 -20 13 -38 37 l-33 43 38 -37 c22 -21
36 -40 33 -43z m127 55 c3 -5 1 -10 -4 -10 -6 0 -11 5 -11 10 0 6 2 10 4 10 3
0 8 -4 11 -10z m-65 -11 c0 -4 8 -6 18 -5 12 1 17 -7 18 -26 1 -24 -1 -26 -19
-16 -12 6 -31 20 -44 32 l-22 21 24 0 c14 0 25 -3 25 -6z m1546 -17 c-18 -16
-18 -16 -6 6 6 13 14 21 18 18 3 -4 -2 -14 -12 -24z m-2616 8 c0 -5 -4 -10
-10 -10 -5 0 -10 5 -10 10 0 6 5 10 10 10 6 0 10 -4 10 -10z m2539 -44 c-9 -8
-10 -7 -5 7 3 10 7 26 7 35 1 9 4 6 6 -7 3 -13 -1 -28 -8 -35z m-1359 11 c0
-4 -9 -2 -20 5 -13 9 -16 14 -7 20 11 6 27 -8 27 -25z m1160 19 c0 -2 -8 -10
-17 -17 -16 -13 -17 -12 -4 4 13 16 21 21 21 13z m131 -29 c-10 -9 -11 -8 -5
6 3 10 9 15 12 12 3 -3 0 -11 -7 -18z m-943 -6 c3 -8 -1 -12 -9 -9 -7 2 -15
10 -17 17 -3 8 1 12 9 9 7 -2 15 -10 17 -17z m1106 -16 c-14 -19 -28 -35 -30
-35 -2 0 4 16 13 35 9 19 23 35 30 35 9 0 5 -12 -13 -35z m-2488 -26 c-3 -17
-6 -38 -6 -45 0 -8 -7 -14 -15 -14 -18 0 -19 29 -3 65 16 35 32 32 24 -6z
m944 27 c0 -3 -4 -8 -10 -11 -5 -3 -10 -1 -10 4 0 6 5 11 10 11 6 0 10 -2 10
-4z m90 -2 c0 -2 -9 -8 -19 -13 -13 -8 -22 -7 -29 2 -8 9 -3 12 19 13 16 1 29
0 29 -2z m790 2 c0 -2 -8 -10 -17 -17 -16 -13 -17 -12 -4 4 13 16 21 21 21 13z
m320 -30 c0 -24 -8 -36 -35 -53 -19 -13 -37 -23 -41 -23 -3 0 -12 -7 -20 -15
-17 -16 -71 -20 -93 -6 -11 7 -10 12 8 22 20 13 29 39 14 39 -23 0 -83 -22
-83 -30 0 -6 -4 -10 -10 -10 -17 0 -11 29 9 47 11 9 18 20 16 24 -3 3 15 4 39
2 34 -4 48 -1 62 14 14 14 34 19 77 20 l57 1 0 -32z m-2211 -41 c-1 -19 -2
-19 -6 -1 -3 11 -11 26 -19 34 -8 7 -14 19 -14 25 0 7 9 1 20 -13 11 -14 19
-34 19 -45z m2319 36 c-7 -12 -22 -24 -33 -27 -11 -4 -30 -16 -42 -27 -13 -11
-23 -16 -23 -10 0 6 12 19 27 29 15 9 39 28 52 40 29 27 38 25 19 -5z m-1158
10 c0 -11 -89 -41 -95 -31 -3 5 54 30 93 39 1 1 2 -3 2 -8z m464 0 c21 -5 44
-15 50 -22 8 -9 5 -10 -14 -4 -14 4 -56 11 -95 16 -38 6 -71 12 -74 14 -8 9
93 5 133 -4z m816 -21 c-6 -12 -14 -20 -17 -17 -2 3 1 14 8 26 17 26 24 19 9
-9z m-1190 5 c0 -8 -4 -15 -9 -15 -5 0 -16 -3 -25 -6 -9 -3 -16 -1 -16 5 0 6
7 11 15 11 8 0 15 5 15 10 0 6 5 10 10 10 6 0 10 -7 10 -15z m480 -15 c0 -13
-11 -13 -30 0 -12 8 -11 10 8 10 12 0 22 -4 22 -10z m-232 -7 c-10 -2 -28 -2
-40 0 -13 2 -5 4 17 4 22 1 32 -1 23 -4z m312 -23 c0 -5 -2 -10 -4 -10 -3 0
-8 5 -11 10 -3 6 -1 10 4 10 6 0 11 -4 11 -10z m50 -20 c8 -5 11 -10 5 -10 -5
0 -17 5 -25 10 -8 5 -10 10 -5 10 6 0 17 -5 25 -10z m140 -5 c0 -8 -7 -15 -15
-15 -9 0 -12 6 -9 15 4 8 10 15 15 15 5 0 9 -7 9 -15z m186 -13 c-5 -9 -86
-35 -112 -37 -6 0 -18 -5 -25 -12 -28 -23 -63 -24 -89 -2 -23 19 -23 20 -3 14
12 -3 24 -1 28 5 3 6 12 7 18 3 20 -12 41 -12 56 0 8 7 15 10 15 8 2 -9 106
22 106 32 0 6 3 8 6 4 3 -3 3 -10 0 -15z m-789 -17 c18 -18 17 -20 -15 -30
-21 -6 -23 -4 -17 14 5 17 3 20 -12 15 -15 -5 -16 -4 -3 5 20 14 29 14 47 -4z
m520 -1 c-3 -3 -12 -4 -19 -1 -8 3 -5 6 6 6 11 1 17 -2 13 -5z m503 2 c0 -2
-16 -21 -35 -42 -42 -45 -47 -38 -7 12 23 29 42 43 42 30z m-225 -86 c-3 -5
-11 -10 -16 -10 -6 0 -7 5 -4 10 3 6 11 10 16 10 6 0 7 -4 4 -10z m-2050 -11
c11 -16 1 -19 -13 -3 -7 8 -8 14 -3 14 5 0 13 -5 16 -11z m1993 -13 c-13 -14
-28 -12 -28 5 0 5 9 9 20 9 17 0 19 -2 8 -14z m-1924 -65 c4 -5 -5 -4 -19 2
-14 7 -25 16 -25 20 0 9 36 -9 44 -22z"/>
<path d="M2587 3750 c3 -11 9 -20 15 -20 5 0 4 9 -2 20 -6 11 -12 20 -14 20
-2 0 -2 -9 1 -20z"/>
<path d="M2627 3733 c-13 -12 -7 -23 13 -23 13 0 18 5 14 15 -7 16 -17 19 -27
8z"/>
<path d="M1525 3682 c-3 -3 -26 -5 -51 -3 -41 2 -48 -1 -80 -36 -48 -52 -57
-77 -49 -148 7 -66 19 -87 41 -78 9 3 33 0 55 -7 30 -10 45 -11 65 -1 23 10
26 9 31 -9 3 -11 9 -20 13 -20 10 0 45 53 42 63 -1 4 9 24 23 44 28 42 24 60
-6 23 l-20 -25 16 33 c20 40 13 99 -16 135 -19 25 -53 40 -64 29z m40 -42 c10
-11 16 -20 13 -20 -3 0 -13 9 -23 20 -10 11 -16 20 -13 20 3 0 13 -9 23 -20z
m-178 -172 c-3 -8 -6 -5 -6 6 -1 11 2 17 5 13 3 -3 4 -12 1 -19z"/>
<path d="M1234 3609 c-3 -6 -1 -16 4 -21 8 -8 11 -5 9 11 -1 24 -3 25 -13 10z"/>
<path d="M1132 3578 c-13 -13 -16 -38 -4 -38 4 0 15 12 25 25 13 19 15 25 4
25 -7 0 -18 -5 -25 -12z"/>
<path d="M1210 3580 c0 -5 5 -10 11 -10 5 0 7 5 4 10 -3 6 -8 10 -11 10 -2 0
-4 -4 -4 -10z"/>
<path d="M1157 3549 c-9 -6 -17 -18 -17 -27 0 -14 4 -13 22 6 24 24 22 36 -5
21z"/>
<path d="M1245 3519 c-4 -6 -5 -12 -2 -15 2 -3 7 2 10 11 7 17 1 20 -8 4z"/>
<path d="M1738 3415 c-7 -7 23 -65 35 -65 13 0 7 27 -11 50 -9 12 -20 18 -24
15z"/>
<path d="M1447 3353 c-9 -9 12 -33 29 -33 12 0 12 4 2 20 -14 21 -21 24 -31
13z"/>
<path d="M2450 3305 c-29 -15 -50 -34 -59 -55 -14 -32 -7 -55 9 -30 8 13 10
12 10 -3 0 -14 5 -17 21 -12 19 6 20 5 9 -15 -10 -18 -9 -21 1 -15 9 6 11 3 6
-8 -3 -10 -3 -17 2 -17 8 0 11 -12 15 -75 4 -61 6 -63 21 -20 9 25 11 43 5 49
-6 6 -10 15 -10 21 0 5 4 3 10 -5 5 -8 12 -11 16 -7 4 3 2 13 -4 20 -7 8 -9
17 -5 21 10 9 14 176 5 176 -4 -1 -27 -12 -52 -25z"/>
<path d="M2419 3118 c-5 -24 -3 -88 2 -88 11 0 31 68 24 80 -5 9 -24 14 -26 8z"/>
<path d="M2338 2985 c-7 -7 15 -75 24 -75 9 0 10 42 2 64 -6 16 -16 20 -26 11z"/>
<path d="M2393 2945 c0 -25 4 -45 8 -45 9 0 18 48 12 71 -9 34 -20 20 -20 -26z"/>
<path d="M1797 2253 c-4 -3 -7 -16 -8 -27 0 -16 -16 -29 -62 -50 -34 -17 -70
-37 -80 -46 -10 -10 -35 -26 -57 -36 -22 -10 -40 -22 -40 -26 0 -5 -7 -8 -15
-8 -11 0 -13 -8 -8 -30 3 -18 1 -30 -5 -30 -14 0 -20 -21 -12 -50 6 -24 8 -24
68 35 97 94 158 145 173 145 8 0 25 20 39 45 14 25 28 45 32 45 5 0 8 9 8 20
0 19 -20 27 -33 13z m-42 -103 c-3 -5 -14 -10 -23 -9 -14 0 -13 2 3 9 27 11
27 11 20 0z m-90 -60 c-3 -5 -11 -10 -16 -10 -6 0 -7 5 -4 10 3 6 11 10 16 10
6 0 7 -4 4 -10z"/>
<path d="M1445 2040 c10 -11 20 -20 23 -20 3 0 -3 9 -13 20 -10 11 -20 20 -23
20 -3 0 3 -9 13 -20z"/>
<path d="M1485 2044 c4 -16 -12 -35 -75 -89 -50 -43 -77 -72 -71 -78 6 -6 25
5 51 29 23 22 54 46 68 54 15 8 32 22 39 30 14 17 17 64 4 56 -5 -4 -12 0 -15
6 -3 7 -4 4 -1 -8z"/>
<path d="M1415 2010 c3 -5 8 -10 11 -10 2 0 4 5 4 10 0 6 -5 10 -11 10 -5 0
-7 -4 -4 -10z"/>
<path d="M2590 3000 c0 -5 5 -10 11 -10 5 0 7 5 4 10 -3 6 -8 10 -11 10 -2 0
-4 -4 -4 -10z"/>
<path d="M2625 2899 c-11 -17 1 -21 15 -4 8 9 8 15 2 15 -6 0 -14 -5 -17 -11z"/>
<path d="M2915 2869 c-10 -14 5 -150 15 -144 5 3 6 29 3 58 -3 32 -1 62 6 75
10 18 9 22 -3 22 -8 0 -18 -5 -21 -11z"/>
<path d="M2863 2842 c-15 -10 -13 -90 4 -103 18 -15 19 -13 26 48 6 51 -5 71
-30 55z m14 -34 c-3 -8 -6 -5 -6 6 -1 11 2 17 5 13 3 -3 4 -12 1 -19z"/>
<path d="M2817 2813 c-11 -10 -8 -103 3 -103 6 0 10 18 10 39 0 22 3 46 6 55
6 16 -7 22 -19 9z"/>
<path d="M3030 2086 c0 -9 7 -16 16 -16 17 0 14 22 -4 28 -7 2 -12 -3 -12 -12z"/>
<path d="M2988 2003 c7 -3 16 -2 19 1 4 3 -2 6 -13 5 -11 0 -14 -3 -6 -6z"/>
<path d="M1312 3085 c-33 -28 -51 -33 -32 -10 7 9 11 18 8 20 -10 10 -30 -24
-22 -37 9 -13 10 -18 13 -39 1 -10 91 74 91 85 0 14 -31 4 -58 -19z"/>
<path d="M3488 3223 c-30 -5 -58 -36 -58 -65 0 -10 -7 -18 -15 -18 -22 0 -18
-23 5 -38 11 -7 20 -17 20 -22 0 -7 -7 -7 -20 0 -35 19 -24 -12 16 -43 36 -29
58 -30 34 -3 -6 9 -10 21 -8 27 2 6 12 -1 22 -16 13 -20 15 -30 7 -38 -17 -17
-13 -30 8 -24 14 3 18 1 14 -9 -6 -17 -1 -17 32 -2 14 6 24 17 21 23 -2 7 -1
17 4 24 6 10 12 10 29 1 17 -9 26 -9 37 1 19 15 18 29 -3 29 -15 0 -15 1 0 18
24 26 21 49 -4 48 -14 -1 -25 7 -30 22 -6 15 -5 21 1 17 6 -3 10 -13 10 -21 0
-9 5 -14 12 -12 20 7 20 24 -1 49 -18 20 -22 22 -31 9 -6 -9 -10 -11 -10 -3 0
16 -40 53 -54 52 -6 -1 -23 -4 -38 -6z"/>
<path d="M3680 3210 c0 -5 5 -10 10 -10 6 0 10 5 10 10 0 6 -4 10 -10 10 -5 0
-10 -4 -10 -10z"/>
<path d="M3329 3173 c-10 -20 -11 -27 -2 -30 7 -2 9 -11 6 -19 -3 -8 0 -14 7
-14 6 0 14 9 17 20 3 11 10 17 16 13 6 -4 7 -1 3 6 -5 7 -14 10 -20 8 -9 -4
-11 3 -8 19 6 31 -1 30 -19 -3z"/>
<path d="M3705 3150 c-4 -6 -2 -17 4 -24 6 -7 9 -21 5 -30 -3 -9 -1 -16 5 -16
6 0 11 9 11 20 0 17 7 20 40 20 22 0 40 5 40 11 0 5 -4 7 -10 4 -5 -3 -10 -2
-10 4 0 5 -8 9 -17 9 -10 -1 -28 2 -40 6 -12 4 -24 2 -28 -4z"/>
<path d="M3376 3057 c3 -8 1 -18 -5 -22 -19 -11 -12 -24 10 -20 25 5 38 15 21
15 -7 0 -12 6 -12 14 0 8 -4 18 -10 21 -5 3 -7 0 -4 -8z"/>
<path d="M3670 3030 c0 -5 9 -14 21 -20 19 -11 20 -10 9 9 -11 22 -30 29 -30
11z"/>
<path d="M3745 3001 c-4 -8 -1 -19 8 -28 19 -20 30 -1 13 22 -10 14 -15 15
-21 6z"/>
<path d="M3700 2975 c0 -8 7 -15 15 -15 8 0 15 7 15 15 0 8 -7 15 -15 15 -8 0
-15 -7 -15 -15z"/>
<path d="M3395 2960 c-3 -5 1 -10 10 -10 9 0 13 5 10 10 -3 6 -8 10 -10 10 -2
0 -7 -4 -10 -10z"/>
<path d="M3480 2700 c0 -12 5 -31 11 -42 15 -28 29 -5 20 30 -9 32 -31 41 -31
12z"/>
<path d="M3554 2699 c-8 -13 32 -56 42 -46 8 8 -15 57 -27 57 -4 0 -11 -5 -15
-11z"/>
<path d="M3532 2024 c-10 -18 -3 -74 9 -74 5 0 9 13 9 29 0 16 3 36 6 45 8 21
-12 21 -24 0z"/>
<path d="M3830 2414 c0 -8 5 -12 10 -9 6 3 10 10 10 16 0 5 -4 9 -10 9 -5 0
-10 -7 -10 -16z"/>
<path d="M3090 2195 c0 -8 2 -15 4 -15 2 0 6 7 10 15 3 8 1 15 -4 15 -6 0 -10
-7 -10 -15z"/>
<path d="M1338 1564 c-5 -4 -8 -15 -8 -24 0 -21 26 -57 36 -48 4 4 2 13 -4 20
-5 7 -12 24 -14 36 -1 13 -6 20 -10 16z"/>
<path d="M1387 1483 c-11 -10 -8 -61 3 -68 6 -4 10 10 10 34 0 42 -2 46 -13
34z"/>
<path d="M1432 1428 c2 -6 10 -14 16 -16 7 -2 10 2 6 12 -7 18 -28 22 -22 4z"/>
<path d="M1480 1408 c0 -17 18 -44 24 -37 8 7 -5 49 -15 49 -5 0 -9 -6 -9 -12z"/>
<path d="M1160 1380 c13 -24 35 -27 26 -4 -3 9 -6 18 -6 20 0 2 -7 4 -15 4
-13 0 -14 -4 -5 -20z"/>
<path d="M1747 1443 c-11 -10 -8 -51 3 -58 6 -4 10 8 10 29 0 37 -2 41 -13 29z"/>
<path d="M1780 1360 c0 -5 5 -10 10 -10 6 0 10 5 10 10 0 6 -4 10 -10 10 -5 0
-10 -4 -10 -10z"/>
<path d="M2000 1323 c0 -19 11 -43 21 -43 13 0 11 14 -6 36 -8 10 -15 14 -15
7z"/>
<path d="M2047 1276 c-6 -15 1 -26 15 -26 4 0 8 9 8 20 0 23 -15 27 -23 6z"/>
<path d="M2315 1199 c-4 -6 0 -18 9 -27 15 -15 16 -15 16 5 0 25 -15 38 -25
22z"/>
<path d="M2912 1208 c-7 -7 -12 -26 -11 -42 l1 -31 9 33 c5 17 14 32 19 32 6
0 6 -10 0 -26 -12 -31 -12 -34 -1 -34 14 0 23 37 16 60 -7 23 -16 25 -33 8z"/>
<path d="M2965 1169 c-4 -6 -5 -13 -2 -16 7 -7 27 6 27 18 0 12 -17 12 -25 -2z"/>
<path d="M2685 1180 c-8 -13 4 -32 16 -25 12 8 12 35 0 35 -6 0 -13 -4 -16
-10z"/>
<path d="M2595 1167 c-4 -10 -5 -21 -1 -24 10 -10 18 4 13 24 -4 17 -4 17 -12
0z"/>
<path d="M2630 1160 c0 -19 3 -21 12 -12 9 9 9 15 0 24 -9 9 -12 7 -12 -12z"/>
<path d="M2720 1160 c0 -5 5 -10 10 -10 6 0 10 5 10 10 0 6 -4 10 -10 10 -5 0
-10 -4 -10 -10z"/>
<path d="M1205 1161 c-3 -6 -11 -9 -16 -6 -5 4 -9 2 -9 -4 0 -5 -3 -18 -7 -28
-6 -16 -5 -17 12 -3 17 14 18 13 11 -12 -3 -16 -2 -28 2 -28 5 0 12 19 15 42
6 45 4 57 -8 39z"/>
<path d="M1210 1045 c0 -8 5 -15 10 -15 6 0 10 7 10 15 0 8 -4 15 -10 15 -5 0
-10 -7 -10 -15z"/>
<path d="M1451 975 c-8 -20 -9 -31 -2 -33 6 -2 11 -11 11 -20 0 -12 3 -13 11
-5 8 8 8 23 2 50 l-10 38 -12 -30z"/>
<path d="M1497 923 c-10 -10 -8 -63 2 -63 5 0 9 16 9 35 0 37 -1 39 -11 28z"/>
<path d="M1510 836 c0 -9 5 -16 10 -16 6 0 10 4 10 9 0 6 -4 13 -10 16 -5 3
-10 -1 -10 -9z"/>
<path d="M1525 790 c-3 -5 -1 -10 4 -10 6 0 11 5 11 10 0 6 -2 10 -4 10 -3 0
-8 -4 -11 -10z"/>
<path d="M1759 798 c-4 -40 19 -86 35 -71 13 13 6 32 -11 26 -14 -5 -15 -1
-10 25 4 19 2 32 -3 32 -6 0 -11 -6 -11 -12z"/>
<path d="M1807 725 c-4 -25 4 -40 17 -28 9 9 7 41 -3 47 -5 3 -11 -6 -14 -19z"/>
<path d="M2180 736 c0 -13 8 -30 17 -37 15 -12 16 -12 10 4 -4 10 -7 27 -7 38
0 10 -4 19 -10 19 -5 0 -10 -11 -10 -24z"/>
<path d="M2593 628 c-17 -21 -24 -56 -13 -63 6 -4 10 4 10 17 0 13 5 29 12 36
6 6 9 14 6 17 -3 3 -10 0 -15 -7z"/>
<path d="M2607 544 c-4 -4 -7 -14 -7 -23 0 -11 3 -12 11 -4 6 6 10 16 7 23 -2
6 -7 8 -11 4z"/>
<path d="M2554 246 c-8 -22 -2 -27 16 -16 12 7 12 12 3 21 -10 10 -14 9 -19
-5z"/>
<path d="M3745 4121 c-7 -13 12 -80 27 -96 7 -7 8 7 3 40 -7 53 -18 74 -30 56z"/>
<path d="M3570 4017 c0 -39 27 -84 42 -69 7 7 5 18 -6 33 -9 13 -16 34 -16 46
0 13 -4 23 -10 23 -5 0 -10 -15 -10 -33z"/>
<path d="M3636 4043 c-22 -23 8 -94 34 -78 15 9 12 25 -5 25 -11 0 -14 7 -9
24 5 23 -7 42 -20 29z"/>
<path d="M3690 4036 c0 -7 6 -19 14 -25 19 -16 32 5 16 24 -16 19 -30 19 -30
1z"/>
<path d="M3606 3906 c-7 -29 -47 -64 -169 -149 -37 -26 -72 -45 -78 -42 -5 4
-8 1 -7 -5 3 -10 -82 -61 -124 -74 -23 -7 -23 -26 -1 -26 25 0 138 65 219 126
39 30 80 54 91 54 23 0 68 36 68 54 0 6 11 22 23 34 19 19 21 26 11 38 -17 20
-26 17 -33 -10z"/>
<path d="M3432 3895 c-26 -32 -27 -39 -9 -57 8 -7 12 -19 9 -26 -2 -6 1 -12 7
-12 5 0 8 9 6 20 -2 11 0 22 5 25 5 3 7 12 3 20 -3 8 -1 15 5 15 6 0 12 -6 15
-12 2 -8 8 -9 13 -4 5 5 4 11 -3 13 -7 3 -13 9 -13 14 0 4 8 5 17 2 15 -6 16
-5 3 9 -9 10 -17 12 -21 6 -4 -6 -8 -5 -11 2 -3 9 -12 3 -26 -15z m15 -13
c-19 -21 -22 -37 -5 -26 7 5 8 3 3 -5 -5 -8 -11 -9 -17 -3 -12 12 7 52 24 52
6 0 4 -8 -5 -18z"/>
<path d="M795 3901 c-3 -5 -1 -12 4 -15 13 -8 42 4 35 15 -7 12 -31 12 -39 0z"/>
<path d="M3100 3880 c0 -5 5 -10 10 -10 6 0 10 5 10 10 0 6 -4 10 -10 10 -5 0
-10 -4 -10 -10z"/>
<path d="M3237 3836 c-44 -52 -59 -86 -37 -86 6 0 10 4 10 10 0 5 20 34 45 64
25 31 45 58 45 61 0 16 -21 -1 -63 -49z"/>
<path d="M3387 3856 c-10 -25 -9 -28 5 -20 7 4 8 3 4 -5 -4 -7 -17 -9 -29 -6
-15 4 -18 3 -9 -3 11 -7 10 -12 -3 -26 -9 -9 -13 -16 -9 -16 3 0 1 -7 -6 -15
-15 -18 -8 -28 20 -30 19 -2 25 7 21 29 -1 5 5 6 13 3 8 -3 22 1 33 9 17 14
17 14 -1 7 -12 -4 -17 -3 -13 4 4 6 1 28 -6 49 -11 29 -15 34 -20 20z m19 -48
c4 -7 3 -8 -4 -4 -16 10 -15 -6 1 -24 10 -12 9 -12 -4 -2 -13 10 -19 9 -28 -1
-6 -8 -7 -18 -3 -22 4 -5 1 -5 -5 -1 -8 4 -13 2 -13 -5 0 -7 -3 -10 -6 -7 -9
9 37 77 53 78 1 0 5 -5 9 -12z"/>
<path d="M3516 3855 c-11 -8 -16 -15 -10 -15 5 0 18 7 28 15 11 8 16 15 10 15
-5 0 -18 -7 -28 -15z"/>
<path d="M3473 3843 c-7 -3 -13 -14 -13 -26 0 -21 0 -21 16 1 17 25 16 32 -3
25z"/>
<path d="M3101 3814 c0 -11 3 -14 6 -6 3 7 2 16 -1 19 -3 4 -6 -2 -5 -13z"/>
<path d="M2527 3786 c-4 -10 -1 -13 9 -9 7 3 14 9 14 14 0 14 -17 10 -23 -5z"/>
<path d="M256 3738 c-11 -26 -14 -43 -7 -47 13 -8 2 -51 -13 -51 -7 0 -8 -3
-1 -8 6 -4 16 -18 22 -32 11 -24 12 -24 12 13 1 22 5 36 11 32 5 -3 7 0 4 8
-3 8 -1 18 5 22 19 11 12 27 -9 20 -14 -4 -20 -2 -20 8 0 8 9 26 20 40 24 30
25 37 6 37 -8 0 -21 -19 -30 -42z"/>
<path d="M3296 3754 c-4 -9 -9 -14 -12 -11 -3 3 -17 -1 -32 -9 -20 -10 -27
-21 -27 -43 0 -17 4 -26 9 -21 5 5 14 6 21 3 8 -2 22 0 33 6 15 8 20 19 17 41
-2 17 -1 28 4 26 4 -3 8 1 8 9 0 20 -13 19 -21 -1z"/>
<path d="M3320 3709 c0 -5 5 -7 10 -4 6 3 10 8 10 11 0 2 -4 4 -10 4 -5 0 -10
-5 -10 -11z"/>
<path d="M698 3688 c-7 -13 -11 -26 -10 -30 1 -5 -3 -8 -9 -8 -5 0 -8 -4 -4
-10 3 -5 13 -2 24 8 10 9 26 23 37 30 18 12 18 13 -4 8 -17 -3 -22 -1 -18 10
8 22 -2 17 -16 -8z"/>
<path d="M292 3605 c-15 -33 -15 -75 -1 -75 7 0 9 -10 5 -24 -7 -28 12 -46 25
-25 12 19 11 79 0 79 -5 0 -12 -6 -14 -12 -4 -9 -6 -8 -6 2 0 8 6 26 14 40 18
32 18 40 2 40 -8 0 -19 -11 -25 -25z"/>
<path d="M760 3545 c-51 -26 -125 -98 -116 -113 3 -5 26 11 52 34 26 24 60 50
75 58 27 13 29 13 29 -5 0 -10 5 -19 10 -19 12 0 14 57 3 63 -5 3 -28 -5 -53
-18z"/>
<path d="M270 3475 c0 -18 19 -40 26 -32 4 4 0 15 -9 24 -9 10 -17 13 -17 8z"/>
<path d="M820 3364 c0 -8 5 -12 10 -9 6 4 8 11 5 16 -9 14 -15 11 -15 -7z"/>
<path d="M371 3325 c-1 -34 13 -63 23 -47 3 5 -1 25 -9 43 l-14 34 0 -30z"/>
<path d="M729 3334 c-15 -8 -46 -39 -69 -69 -23 -30 -46 -52 -51 -49 -5 3 -6
-1 -4 -9 3 -7 -5 -25 -19 -40 -14 -15 -23 -27 -21 -27 2 0 -12 -26 -31 -57
-30 -51 -42 -83 -30 -83 3 0 21 26 40 57 20 32 36 50 36 41 0 -9 -4 -19 -9
-22 -12 -8 -21 -46 -11 -46 12 0 33 58 26 75 -5 15 73 126 116 166 10 9 18 21
18 27 0 20 43 26 56 8 15 -21 28 -5 19 24 -7 23 -28 24 -66 4z"/>
<path d="M440 3290 c0 -5 5 -10 10 -10 6 0 10 5 10 10 0 6 -4 10 -10 10 -5 0
-10 -4 -10 -10z"/>
<path d="M461 3274 c-16 -12 -20 -19 -12 -27 8 -8 19 -4 38 16 31 31 13 38
-26 11z"/>
<path d="M675 3219 c-4 -6 -5 -12 -2 -15 2 -3 7 2 10 11 7 17 1 20 -8 4z"/>
<path d="M650 3175 c-7 -9 -8 -15 -2 -15 5 0 12 7 16 15 3 8 4 15 2 15 -2 0
-9 -7 -16 -15z"/>
<path d="M470 3129 c0 -5 5 -7 10 -4 6 3 10 8 10 11 0 2 -4 4 -10 4 -5 0 -10
-5 -10 -11z"/>
<path d="M390 3075 c0 -8 2 -15 4 -15 2 0 6 7 10 15 3 8 1 15 -4 15 -6 0 -10
-7 -10 -15z"/>
<path d="M360 3023 c0 -6 8 -17 18 -24 16 -13 16 -13 2 6 -8 11 -16 22 -17 24
-2 2 -3 0 -3 -6z"/>
<path d="M22 2801 c-14 -8 -7 -87 8 -96 5 -3 6 4 3 15 -3 11 -1 26 5 33 10 12
11 41 1 51 -2 3 -10 1 -17 -3z"/>
<path d="M720 1949 c0 -5 5 -7 10 -4 6 3 10 8 10 11 0 2 -4 4 -10 4 -5 0 -10
-5 -10 -11z"/>
<path d="M750 1940 c0 -5 5 -10 10 -10 6 0 10 5 10 10 0 6 -4 10 -10 10 -5 0
-10 -4 -10 -10z"/>
<path d="M3755 1670 c-4 -17 -5 -34 -2 -36 2 -3 7 10 11 27 8 42 0 50 -9 9z"/>
<path d="M3743 1565 c-3 -9 -3 -18 -1 -21 3 -3 8 4 11 16 6 23 -1 27 -10 5z"/>
<path d="M976 781 c-4 -7 -5 -15 -2 -18 9 -9 19 4 14 18 -4 11 -6 11 -12 0z"/>
<path d="M1040 728 c0 -9 5 -20 10 -23 13 -8 13 5 0 25 -8 13 -10 13 -10 -2z"/>
<path d="M1566 109 c-27 -21 -51 -57 -43 -65 2 -2 24 16 49 41 46 46 42 62 -6
24z"/>
<path d="M2155 83 c-38 -7 -80 -16 -92 -19 -33 -7 -31 -44 1 -44 14 0 27 4 30
9 8 13 56 0 56 -15 0 -30 134 -13 151 19 13 23 -2 37 -31 30 -13 -3 -18 0 -17
13 2 23 -13 25 -98 7z"/>
<path d="M2507 83 c-7 -13 5 -83 14 -83 5 0 9 20 9 45 0 40 -11 58 -23 38z"/>
<path d="M2460 55 c0 -8 5 -15 10 -15 6 0 10 7 10 15 0 8 -4 15 -10 15 -5 0
-10 -7 -10 -15z"/>
</g>
</svg>
